<svg xmlns="http://www.w3.org/2000/svg" xmlns:xlink="http://www.w3.org/1999/xlink" width="802" zoomAndPan="magnify" viewBox="0 0 601.5 599.999999" height="800" preserveAspectRatio="xMidYMid meet" version="1.2"><defs><clipPath id="61fffb1ecd"><path d="M 292.253906 333.445312 L 350.707031 333.445312 L 350.707031 391.898438 L 292.253906 391.898438 Z M 292.253906 333.445312 "/></clipPath></defs><g id="ef1ad6a973"><path style=" stroke:none;fill-rule:nonzero;fill:#caddff;fill-opacity:1;" d="M 147.871094 165.382812 C 206.410156 106.464844 189.652344 69.542969 229.707031 42.261719 C 291.339844 0.285156 406.375 36.402344 474.238281 94.132812 C 557.359375 164.847656 600.242188 293.957031 551.390625 410.761719 C 499.367188 535.152344 362.480469 599.722656 240.335938 580.261719 C 131.257812 562.886719 24.035156 476.917969 13.289062 373.816406 C 12.125 362.640625 6.984375 302.230469 43.039062 250.148438 C 72.839844 207.09375 101.464844 212.085938 147.871094 165.382812 "/><path style=" stroke:none;fill-rule:nonzero;fill:#99b9ff;fill-opacity:1;" d="M 100.523438 102.058594 C 139.351562 94.910156 175.207031 112.90625 180.609375 142.25 C 183.027344 155.382812 178.929688 168.558594 170.195312 179.753906 L 187.667969 206.621094 L 150.972656 196.648438 C 142.066406 202.117188 131.589844 206.210938 120.082031 208.324219 C 81.253906 215.472656 45.398438 197.476562 39.996094 168.128906 C 34.59375 138.789062 61.695312 109.203125 100.523438 102.058594 "/><path style=" stroke:none;fill-rule:nonzero;fill:#000000;fill-opacity:1;" d="M 72.542969 107.355469 C 72.21875 107.355469 71.898438 107.203125 71.703125 106.910156 C 71.390625 106.445312 71.511719 105.816406 71.976562 105.503906 C 72.839844 104.925781 73.722656 104.355469 74.605469 103.8125 C 75.078125 103.519531 75.707031 103.664062 76 104.140625 C 76.292969 104.617188 76.144531 105.242188 75.667969 105.535156 C 74.8125 106.066406 73.949219 106.621094 73.109375 107.1875 C 72.9375 107.304688 72.738281 107.355469 72.542969 107.355469 "/><path style=" stroke:none;fill-rule:nonzero;fill:#000000;fill-opacity:1;" d="M 108.882812 201.722656 C 76.585938 201.722656 49.382812 184.597656 44.695312 159.140625 C 41.5625 142.113281 48.902344 124.535156 64.839844 110.917969 C 65.265625 110.554688 65.90625 110.605469 66.269531 111.03125 C 66.632812 111.453125 66.582031 112.09375 66.15625 112.460938 C 50.785156 125.59375 43.691406 142.472656 46.691406 158.773438 C 51.980469 187.519531 87.375 205.191406 125.59375 198.152344 C 128.457031 197.625 131.3125 196.964844 134.078125 196.183594 C 134.617188 196.03125 135.175781 196.347656 135.328125 196.886719 C 135.480469 197.425781 135.164062 197.984375 134.625 198.136719 C 131.800781 198.933594 128.886719 199.609375 125.960938 200.148438 C 120.175781 201.214844 114.449219 201.722656 108.882812 201.722656 "/><path style=" stroke:none;fill-rule:nonzero;fill:#000000;fill-opacity:1;" d="M 193.363281 198.457031 C 193.277344 198.457031 193.1875 198.449219 193.097656 198.421875 L 156.824219 188.566406 C 154.191406 190.164062 151.417969 191.644531 148.570312 192.972656 C 148.0625 193.210938 147.460938 192.988281 147.222656 192.484375 C 146.984375 191.976562 147.207031 191.371094 147.714844 191.136719 C 150.625 189.777344 153.460938 188.253906 156.140625 186.605469 C 156.378906 186.464844 156.664062 186.417969 156.9375 186.492188 L 191.066406 195.769531 L 175.039062 171.128906 C 174.804688 170.765625 174.824219 170.292969 175.089844 169.953125 C 183.945312 158.605469 187.574219 145.578125 185.308594 133.257812 C 182.753906 119.386719 173.175781 107.644531 158.34375 100.203125 C 143.414062 92.707031 124.96875 90.460938 106.402344 93.882812 C 102.023438 94.683594 97.699219 95.800781 93.554688 97.195312 C 93.023438 97.371094 92.445312 97.089844 92.269531 96.558594 C 92.089844 96.023438 92.375 95.453125 92.90625 95.273438 C 97.144531 93.847656 101.5625 92.707031 106.035156 91.882812 C 125.03125 88.390625 143.929688 90.699219 159.253906 98.386719 C 174.667969 106.125 184.628906 118.378906 187.300781 132.890625 C 189.636719 145.578125 186.027344 158.953125 177.132812 170.628906 L 194.214844 196.890625 C 194.445312 197.242188 194.429688 197.703125 194.183594 198.042969 C 193.988281 198.308594 193.683594 198.457031 193.363281 198.457031 "/><path style=" stroke:none;fill-rule:nonzero;fill:#5479f7;fill-opacity:1;" d="M 117.761719 141.242188 C 117.203125 141.242188 116.75 140.789062 116.75 140.230469 C 116.746094 139.671875 117.199219 139.21875 117.761719 139.214844 L 166.605469 139.097656 C 166.605469 139.097656 166.609375 139.097656 166.609375 139.097656 C 167.167969 139.097656 167.621094 139.554688 167.621094 140.109375 C 167.625 140.671875 167.171875 141.125 166.609375 141.128906 L 117.765625 141.242188 C 117.765625 141.242188 117.765625 141.242188 117.761719 141.242188 "/><path style=" stroke:none;fill-rule:nonzero;fill:#5479f7;fill-opacity:1;" d="M 61.765625 139.835938 C 61.210938 139.835938 60.757812 139.382812 60.753906 138.828125 C 60.75 138.265625 61.199219 137.808594 61.761719 137.808594 L 108.429688 137.546875 C 108.433594 137.546875 108.433594 137.546875 108.4375 137.546875 C 108.992188 137.546875 109.445312 138 109.449219 138.554688 C 109.453125 139.113281 109 139.574219 108.441406 139.578125 L 61.773438 139.835938 C 61.769531 139.835938 61.769531 139.835938 61.765625 139.835938 "/><path style=" stroke:none;fill-rule:nonzero;fill:#5479f7;fill-opacity:1;" d="M 164.496094 153.945312 C 164.492188 153.945312 164.488281 153.945312 164.484375 153.945312 L 100.667969 153.15625 C 100.105469 153.152344 99.660156 152.691406 99.664062 152.132812 C 99.671875 151.578125 100.125 151.128906 100.679688 151.128906 C 100.683594 151.128906 100.6875 151.128906 100.691406 151.128906 L 164.507812 151.917969 C 165.066406 151.925781 165.515625 152.382812 165.507812 152.945312 C 165.5 153.5 165.050781 153.945312 164.496094 153.945312 "/><path style=" stroke:none;fill-rule:nonzero;fill:#5479f7;fill-opacity:1;" d="M 88.304688 153.007812 C 88.300781 153.007812 88.296875 153.007812 88.292969 153.007812 L 59.640625 152.652344 C 59.082031 152.644531 58.632812 152.1875 58.640625 151.625 C 58.648438 151.070312 59.101562 150.625 59.652344 150.625 C 59.660156 150.625 59.660156 150.625 59.667969 150.625 L 88.316406 150.980469 C 88.878906 150.988281 89.324219 151.449219 89.320312 152.007812 C 89.3125 152.5625 88.859375 153.007812 88.304688 153.007812 "/><path style=" stroke:none;fill-rule:nonzero;fill:#5479f7;fill-opacity:1;" d="M 166.316406 164.785156 C 166.3125 164.785156 166.3125 164.785156 166.308594 164.785156 L 142.925781 164.640625 C 142.367188 164.636719 141.917969 164.179688 141.917969 163.621094 C 141.921875 163.0625 142.375 162.609375 142.933594 162.609375 C 142.9375 162.609375 142.9375 162.609375 142.941406 162.609375 L 166.320312 162.753906 C 166.882812 162.757812 167.332031 163.214844 167.332031 163.773438 C 167.328125 164.335938 166.875 164.785156 166.316406 164.785156 "/><path style=" stroke:none;fill-rule:nonzero;fill:#5479f7;fill-opacity:1;" d="M 137.359375 164.726562 C 137.355469 164.726562 137.347656 164.726562 137.34375 164.726562 L 61.457031 163.488281 C 60.898438 163.480469 60.453125 163.019531 60.460938 162.457031 C 60.46875 161.898438 60.921875 161.441406 61.492188 161.460938 L 137.375 162.699219 C 137.9375 162.710938 138.382812 163.167969 138.371094 163.730469 C 138.363281 164.285156 137.914062 164.726562 137.359375 164.726562 "/><path style=" stroke:none;fill-rule:nonzero;fill:#5479f7;fill-opacity:1;" d="M 486.835938 554.335938 L 235.402344 554.335938 C 224.5625 554.335938 216.890625 545.59375 218.253906 534.816406 L 280.167969 46.652344 C 281.535156 35.871094 291.429688 27.132812 302.261719 27.132812 L 541.074219 24.347656 C 568.484375 24.347656 572.207031 35.871094 570.839844 46.652344 L 508.929688 534.816406 C 507.5625 545.59375 497.667969 554.335938 486.835938 554.335938 "/><path style=" stroke:none;fill-rule:nonzero;fill:#ffffff;fill-opacity:1;" d="M 471.703125 554.335938 L 220.269531 554.335938 C 209.4375 554.335938 201.761719 545.550781 203.128906 534.714844 L 265.039062 44.0625 C 266.40625 33.226562 276.296875 24.445312 287.132812 24.445312 L 538.566406 24.445312 C 549.402344 24.445312 557.078125 33.226562 555.710938 44.0625 L 493.800781 534.714844 C 492.433594 545.550781 482.539062 554.335938 471.703125 554.335938 "/><path style=" stroke:none;fill-rule:nonzero;fill:#caddff;fill-opacity:1;" d="M 217.457031 535.390625 L 276.570312 66.898438 C 276.886719 64.398438 279.167969 62.371094 281.667969 62.371094 L 534.457031 62.371094 C 536.960938 62.371094 538.730469 64.398438 538.414062 66.898438 L 479.300781 535.390625 C 478.988281 537.894531 476.699219 539.921875 474.199219 539.921875 L 221.414062 539.921875 C 218.910156 539.921875 217.140625 537.894531 217.457031 535.390625 "/><path style=" stroke:none;fill-rule:nonzero;fill:#caddff;fill-opacity:1;" d="M 409.703125 49.394531 C 405.644531 49.394531 402.769531 46.105469 403.28125 42.042969 C 403.792969 37.988281 407.496094 34.699219 411.554688 34.699219 C 415.617188 34.699219 418.492188 37.988281 417.980469 42.042969 C 417.46875 46.105469 413.761719 49.394531 409.703125 49.394531 "/><path style=" stroke:none;fill-rule:nonzero;fill:#000000;fill-opacity:1;" d="M 471.707031 555.347656 L 264.171875 555.347656 C 263.613281 555.347656 263.15625 554.894531 263.15625 554.335938 C 263.15625 553.773438 263.613281 553.320312 264.171875 553.320312 L 471.707031 553.320312 C 482.027344 553.320312 491.492188 544.917969 492.789062 534.589844 L 554.703125 43.9375 C 555.328125 38.960938 553.980469 34.292969 550.90625 30.808594 C 547.867188 27.355469 543.484375 25.457031 538.570312 25.457031 L 287.132812 25.457031 C 276.808594 25.457031 267.34375 33.863281 266.042969 44.191406 L 225.304688 367.046875 C 225.234375 367.597656 224.734375 367.996094 224.171875 367.921875 C 223.617188 367.851562 223.222656 367.34375 223.292969 366.792969 L 264.03125 43.9375 C 265.457031 32.628906 275.820312 23.429688 287.132812 23.429688 L 538.570312 23.429688 C 544.070312 23.429688 548.992188 25.574219 552.425781 29.464844 C 555.894531 33.398438 557.417969 38.628906 556.714844 44.191406 L 494.804688 534.84375 C 493.375 546.148438 483.011719 555.347656 471.707031 555.347656 "/><path style=" stroke:none;fill-rule:nonzero;fill:#000000;fill-opacity:1;" d="M 474.199219 540.933594 L 391.910156 540.933594 C 391.351562 540.933594 390.894531 540.480469 390.894531 539.917969 C 390.894531 539.363281 391.351562 538.90625 391.910156 538.90625 L 474.199219 538.90625 C 476.207031 538.90625 478.042969 537.273438 478.296875 535.265625 L 537.410156 66.769531 C 537.53125 65.847656 537.28125 64.988281 536.722656 64.355469 C 536.171875 63.730469 535.371094 63.386719 534.457031 63.386719 L 281.671875 63.386719 C 279.667969 63.386719 277.828125 65.015625 277.578125 67.027344 L 236.664062 391.269531 C 236.59375 391.828125 236.085938 392.21875 235.53125 392.152344 C 234.976562 392.078125 234.582031 391.574219 234.652344 391.019531 L 275.5625 66.769531 C 275.941406 63.78125 278.683594 61.355469 281.671875 61.355469 L 534.457031 61.355469 C 535.957031 61.355469 537.300781 61.941406 538.242188 63.015625 C 539.199219 64.09375 539.613281 65.515625 539.425781 67.027344 L 480.308594 535.519531 C 479.933594 538.503906 477.191406 540.933594 474.199219 540.933594 "/><path style=" stroke:none;fill-rule:nonzero;fill:#000000;fill-opacity:1;" d="M 250.234375 343.816406 C 250.234375 343.773438 250.234375 343.730469 250.234375 343.691406 C 250.492188 330.410156 258.714844 316.871094 274.667969 303.457031 C 285.855469 294.054688 296.863281 288.136719 297.324219 287.886719 C 301.015625 285.917969 305.609375 287.308594 307.582031 291 C 309.554688 294.691406 308.160156 299.285156 304.46875 301.253906 C 293.714844 307.027344 265.738281 325.941406 265.390625 343.980469 C 265.390625 344.011719 265.390625 344.039062 265.390625 344.066406 C 265.296875 349.785156 266.988281 354.238281 270.566406 357.675781 C 279.132812 365.902344 296.5 366.777344 302.46875 366.417969 C 306.648438 366.171875 310.234375 369.355469 310.488281 373.535156 C 310.734375 377.707031 307.550781 381.304688 303.375 381.550781 C 302.230469 381.621094 275.121094 383.0625 260.066406 368.609375 C 253.378906 362.183594 250.070312 353.839844 250.234375 343.816406 "/><path style=" stroke:none;fill-rule:nonzero;fill:#5479f7;fill-opacity:1;" d="M 303.960938 397.921875 L 304.699219 353.039062 C 304.765625 348.855469 308.210938 345.519531 312.398438 345.585938 C 316.585938 345.65625 319.921875 349.101562 319.855469 353.289062 L 319.117188 398.171875 C 319.050781 402.355469 315.601562 405.691406 311.414062 405.621094 C 307.230469 405.554688 303.894531 402.105469 303.960938 397.921875 "/><path style=" stroke:none;fill-rule:nonzero;fill:#5479f7;fill-opacity:1;" d="M 242.761719 208.351562 L 258.59375 208.351562 C 259.222656 208.351562 259.734375 207.84375 259.734375 207.21875 L 259.734375 159.878906 C 259.734375 159.253906 259.226562 158.742188 258.59375 158.742188 L 242.761719 158.742188 C 239.429688 158.742188 236.738281 161.4375 236.738281 164.765625 L 236.738281 202.332031 C 236.738281 205.660156 239.429688 208.351562 242.761719 208.351562 "/><path style=" stroke:none;fill-rule:nonzero;fill:#ffffff;fill-opacity:1;" d="M 478.105469 208.351562 L 462.085938 208.351562 L 462.085938 163.535156 L 478.105469 163.535156 C 481.957031 163.535156 485.078125 166.660156 485.078125 170.511719 L 485.078125 201.375 C 485.078125 205.230469 481.957031 208.351562 478.105469 208.351562 "/><path style=" stroke:none;fill-rule:nonzero;fill:#000000;fill-opacity:1;" d="M 463.101562 207.335938 L 465.320312 207.335938 C 475.65625 207.335938 484.066406 198.929688 484.066406 188.59375 L 484.066406 183.296875 C 484.066406 172.960938 475.65625 164.550781 465.320312 164.550781 L 463.101562 164.550781 Z M 465.320312 209.363281 L 462.085938 209.363281 C 461.527344 209.363281 461.074219 208.910156 461.074219 208.347656 L 461.074219 163.535156 C 461.074219 162.976562 461.527344 162.519531 462.085938 162.519531 L 465.320312 162.519531 C 476.773438 162.519531 486.097656 171.839844 486.097656 183.296875 L 486.097656 188.59375 C 486.097656 200.046875 476.773438 209.363281 465.320312 209.363281 "/><path style=" stroke:none;fill-rule:nonzero;fill:#ffffff;fill-opacity:1;" d="M 469.332031 184.089844 C 469.332031 135.933594 420.785156 86.121094 360.90625 86.121094 C 301.03125 86.121094 252.488281 135.933594 252.488281 184.089844 C 252.488281 232.25 301.03125 260.511719 360.90625 260.511719 C 420.785156 260.511719 469.332031 232.25 469.332031 184.089844 "/><path style=" stroke:none;fill-rule:nonzero;fill:#000000;fill-opacity:1;" d="M 360.910156 87.132812 C 299.433594 87.132812 253.503906 138.324219 253.503906 184.089844 C 253.503906 206.695312 264.328125 225.859375 284.804688 239.523438 C 304.128906 252.40625 331.152344 259.5 360.910156 259.5 C 390.664062 259.5 417.691406 252.40625 437.007812 239.523438 C 457.488281 225.859375 468.316406 206.695312 468.316406 184.089844 C 468.316406 138.324219 422.378906 87.132812 360.910156 87.132812 Z M 360.910156 261.527344 C 330.757812 261.527344 303.328125 254.308594 283.683594 241.207031 C 262.609375 227.15625 251.472656 207.40625 251.472656 184.089844 C 251.472656 160.207031 263.164062 135.503906 283.546875 116.308594 C 304.921875 96.191406 332.394531 85.105469 360.910156 85.105469 C 389.425781 85.105469 416.902344 96.191406 438.265625 116.308594 C 458.648438 135.503906 470.339844 160.207031 470.339844 184.089844 C 470.339844 207.40625 459.207031 227.15625 438.132812 241.207031 C 418.488281 254.308594 391.058594 261.527344 360.910156 261.527344 "/><path style=" stroke:none;fill-rule:nonzero;fill:#ffffff;fill-opacity:1;" d="M 333.753906 274.984375 L 388.070312 274.984375 C 411.871094 274.984375 431.171875 294.277344 431.171875 318.085938 C 431.171875 333.8125 429.636719 349.503906 426.589844 364.933594 L 418.78125 404.480469 C 413.324219 432.121094 389.082031 452.046875 360.910156 452.046875 C 332.734375 452.046875 308.496094 432.121094 303.039062 404.480469 L 295.230469 364.933594 C 292.183594 349.503906 290.648438 333.8125 290.648438 318.085938 C 290.648438 294.277344 309.949219 274.984375 333.753906 274.984375 "/><path style=" stroke:none;fill-rule:nonzero;fill:#000000;fill-opacity:1;" d="M 333.75 275.996094 C 310.546875 275.996094 291.664062 294.875 291.664062 318.085938 C 291.664062 333.714844 293.199219 349.410156 296.226562 364.738281 L 304.035156 404.285156 C 309.382812 431.371094 333.300781 451.027344 360.90625 451.027344 C 388.515625 451.027344 412.441406 431.371094 417.785156 404.285156 L 425.597656 364.738281 C 428.625 349.410156 430.15625 333.714844 430.15625 318.085938 C 430.15625 294.875 411.277344 275.996094 388.066406 275.996094 Z M 360.90625 453.058594 C 332.335938 453.058594 307.578125 432.710938 302.042969 404.675781 L 294.234375 365.132812 C 291.183594 349.671875 289.636719 333.84375 289.636719 318.085938 C 289.636719 293.761719 309.421875 273.96875 333.75 273.96875 L 388.066406 273.96875 C 412.394531 273.96875 432.183594 293.761719 432.183594 318.085938 C 432.183594 333.84375 430.636719 349.671875 427.585938 365.132812 L 419.777344 404.675781 C 414.238281 432.710938 389.484375 453.058594 360.90625 453.058594 "/><path style=" stroke:none;fill-rule:nonzero;fill:#caddff;fill-opacity:1;" d="M 357.417969 370.484375 L 364.40625 370.484375 C 378.800781 370.484375 390.472656 358.8125 390.472656 344.417969 L 390.472656 274.980469 L 331.34375 274.980469 L 331.34375 344.417969 C 331.34375 358.8125 343.019531 370.484375 357.417969 370.484375 "/><path style=" stroke:none;fill-rule:nonzero;fill:#000000;fill-opacity:1;" d="M 390.472656 275.996094 L 331.34375 275.996094 C 330.785156 275.996094 330.332031 275.542969 330.332031 274.980469 C 330.332031 274.421875 330.785156 273.96875 331.34375 273.96875 L 390.472656 273.96875 C 391.035156 273.96875 391.488281 274.421875 391.488281 274.980469 C 391.488281 275.542969 391.035156 275.996094 390.472656 275.996094 "/><path style=" stroke:none;fill-rule:nonzero;fill:#000000;fill-opacity:1;" d="M 288.015625 169.640625 L 392.421875 169.640625 C 403.269531 169.640625 412.058594 179.113281 412.058594 190.804688 L 412.058594 204.609375 C 412.058594 213.523438 407.300781 222.96875 399.097656 224.511719 C 370.164062 229.945312 310.273438 229.945312 281.339844 224.511719 C 273.132812 222.96875 268.375 213.523438 268.375 204.609375 L 268.375 190.804688 C 268.375 179.113281 277.171875 169.640625 288.015625 169.640625 "/><path style=" stroke:none;fill-rule:nonzero;fill:#5479f7;fill-opacity:1;" d="M 364.753906 197.421875 C 364.753906 201.339844 367.699219 204.515625 371.332031 204.515625 C 374.964844 204.515625 377.914062 201.339844 377.914062 197.421875 C 377.914062 193.507812 374.964844 190.332031 371.332031 190.332031 C 367.699219 190.332031 364.753906 193.507812 364.753906 197.421875 "/><path style=" stroke:none;fill-rule:nonzero;fill:#5479f7;fill-opacity:1;" d="M 294.753906 197.421875 C 294.753906 201.339844 297.699219 204.515625 301.332031 204.515625 C 304.964844 204.515625 307.914062 201.339844 307.914062 197.421875 C 307.914062 193.507812 304.964844 190.332031 301.332031 190.332031 C 297.699219 190.332031 294.753906 193.507812 294.753906 197.421875 "/><path style=" stroke:none;fill-rule:nonzero;fill:#5479f7;fill-opacity:1;" d="M 403.988281 239.105469 C 403.5625 239.105469 403.167969 238.835938 403.027344 238.410156 C 402.851562 237.878906 403.140625 237.304688 403.671875 237.132812 L 437.007812 226.152344 C 452.207031 221.148438 461.476562 206.042969 459.058594 190.226562 L 456.65625 174.550781 C 456.570312 173.996094 456.949219 173.480469 457.503906 173.394531 C 458.0625 173.308594 458.574219 173.691406 458.660156 174.242188 L 461.058594 189.917969 C 463.632812 206.714844 453.785156 222.769531 437.640625 228.082031 L 404.304688 239.054688 C 404.203125 239.09375 404.09375 239.105469 403.988281 239.105469 "/><path style=" stroke:none;fill-rule:nonzero;fill:#5479f7;fill-opacity:1;" d="M 473.351562 167.804688 C 472.898438 167.804688 472.488281 167.503906 472.371094 167.050781 C 472.316406 166.84375 466.726562 146.160156 452.039062 126.085938 C 438.535156 107.640625 414.347656 85.929688 375.722656 87.3125 C 375.175781 87.328125 374.691406 86.894531 374.679688 86.332031 C 374.65625 85.777344 375.089844 85.308594 375.652344 85.285156 C 393.089844 84.667969 409.164062 88.566406 423.378906 96.871094 C 434.738281 103.507812 444.941406 112.949219 453.710938 124.941406 C 468.609375 145.316406 474.273438 166.320312 474.328125 166.53125 C 474.472656 167.074219 474.148438 167.628906 473.609375 167.769531 C 473.519531 167.792969 473.433594 167.804688 473.351562 167.804688 "/><path style=" stroke:none;fill-rule:nonzero;fill:#99b9ff;fill-opacity:1;" d="M 444.917969 191.210938 C 443.128906 177.09375 452.175781 164.328125 465.117188 162.6875 C 466.539062 162.511719 471.796875 162.375 473.179688 162.46875 C 484.40625 163.222656 490.199219 172.714844 491.789062 185.28125 C 493.5 198.835938 488.335938 211.496094 476.21875 213.910156 C 475.714844 214.007812 472.128906 214.292969 471.605469 214.292969 C 457.421875 214.339844 446.703125 205.328125 444.917969 191.210938 "/><path style=" stroke:none;fill-rule:nonzero;fill:#5479f7;fill-opacity:1;" d="M 450.511719 190.753906 C 449.003906 176.605469 458.300781 164.015625 471.269531 162.632812 C 484.238281 161.25 495.980469 171.597656 497.492188 185.742188 C 499 199.890625 489.703125 212.480469 476.738281 213.867188 C 463.765625 215.246094 452.023438 204.902344 450.511719 190.753906 "/><path style=" stroke:none;fill-rule:nonzero;fill:#5479f7;fill-opacity:1;" d="M 411.503906 243.03125 L 385.542969 245.5 C 384.546875 245.59375 383.660156 244.859375 383.566406 243.867188 L 382.804688 235.878906 C 382.710938 234.886719 383.449219 233.996094 384.441406 233.902344 L 410.40625 231.433594 C 411.398438 231.34375 412.289062 232.078125 412.378906 233.066406 L 413.136719 241.054688 C 413.234375 242.050781 412.496094 242.9375 411.503906 243.03125 "/><path style=" stroke:none;fill-rule:nonzero;fill:#99b9ff;fill-opacity:1;" d="M 305.050781 428.046875 L 406.144531 428.046875 L 366.875 321.863281 L 265.785156 321.863281 L 305.050781 428.046875 "/><path style=" stroke:none;fill-rule:nonzero;fill:#000000;fill-opacity:1;" d="M 305.757812 427.03125 L 404.6875 427.03125 L 366.171875 322.878906 L 267.242188 322.878906 Z M 406.144531 429.0625 L 305.050781 429.0625 C 304.628906 429.0625 304.25 428.796875 304.101562 428.398438 L 264.835938 322.214844 C 264.722656 321.90625 264.765625 321.554688 264.953125 321.285156 C 265.144531 321.011719 265.457031 320.851562 265.785156 320.851562 L 366.875 320.851562 C 367.300781 320.851562 367.679688 321.113281 367.828125 321.511719 L 407.09375 427.695312 C 407.210938 428.007812 407.167969 428.355469 406.972656 428.628906 C 406.785156 428.898438 406.472656 429.0625 406.144531 429.0625 "/><path style=" stroke:none;fill-rule:nonzero;fill:#000000;fill-opacity:1;" d="M 430.261719 401.679688 C 445.109375 401.679688 465.199219 399.566406 478.078125 389.691406 C 485.496094 384.003906 489.832031 376.488281 490.964844 367.363281 C 496.03125 326.390625 446.582031 302.9375 444.476562 301.957031 C 440.679688 300.195312 436.171875 301.84375 434.410156 305.640625 C 432.652344 309.433594 434.296875 313.9375 438.085938 315.699219 C 438.5 315.898438 479.632812 335.5 475.921875 365.503906 C 475.300781 370.515625 472.992188 374.496094 468.851562 377.664062 C 454.691406 388.519531 417.351562 388.246094 406.648438 386.746094 C 402.503906 386.160156 400.472656 388.90625 399.890625 393.050781 C 399.308594 397.195312 402.488281 401.15625 406.648438 401.613281 C 412.652344 402.273438 419.6875 401.679688 430.261719 401.679688 "/><path style=" stroke:none;fill-rule:nonzero;fill:#000000;fill-opacity:1;" d="M 374.320312 411.996094 L 388.875 411.996094 C 396.828125 411.996094 403.421875 406.027344 404.210938 398.117188 L 404.71875 393.050781 C 405.152344 388.726562 403.726562 384.398438 400.8125 381.171875 C 397.894531 377.953125 393.726562 376.105469 389.378906 376.105469 L 366.164062 376.105469 C 361.980469 376.105469 358.585938 379.496094 358.585938 383.683594 C 358.585938 387.867188 361.980469 391.261719 366.164062 391.261719 L 389.378906 391.261719 C 389.421875 391.261719 389.496094 391.261719 389.570312 391.347656 C 389.648438 391.429688 389.640625 391.5 389.636719 391.542969 L 389.128906 396.609375 C 389.117188 396.738281 389.007812 396.835938 388.875 396.835938 L 374.320312 396.835938 C 370.136719 396.835938 366.742188 400.230469 366.742188 404.417969 C 366.742188 408.601562 370.136719 411.996094 374.320312 411.996094 "/><path style=" stroke:none;fill-rule:nonzero;fill:#99b9ff;fill-opacity:1;" d="M 208.449219 44.152344 C 217.550781 41.296875 227.242188 46.363281 230.097656 55.464844 C 232.945312 64.570312 227.878906 74.257812 218.78125 77.113281 C 209.679688 79.964844 199.988281 74.894531 197.136719 65.796875 C 194.285156 56.695312 199.347656 47.003906 208.449219 44.152344 Z M 179.496094 67.808594 L 181.5 74.210938 L 188.804688 73.609375 C 189.535156 75.011719 190.367188 76.335938 191.300781 77.5625 L 187.652344 83.910156 L 192.59375 88.449219 L 198.621094 84.277344 C 199.9375 85.113281 201.320312 85.835938 202.757812 86.441406 L 202.769531 93.769531 L 209.320312 95.234375 L 212.445312 88.617188 C 213.992188 88.679688 215.550781 88.609375 217.117188 88.410156 L 220.792969 94.75 L 227.195312 92.746094 L 226.59375 85.441406 C 227.992188 84.710938 229.316406 83.878906 230.546875 82.945312 L 236.890625 86.59375 L 241.429688 81.652344 L 237.261719 75.625 C 238.09375 74.3125 238.820312 72.925781 239.425781 71.492188 L 246.75 71.476562 L 248.21875 64.929688 L 241.601562 61.800781 C 241.664062 60.257812 241.597656 58.695312 241.398438 57.128906 L 247.734375 53.453125 L 245.730469 47.050781 L 238.425781 47.652344 C 237.695312 46.25 236.863281 44.929688 235.925781 43.699219 L 239.578125 37.355469 L 234.636719 32.816406 L 228.613281 36.984375 C 227.296875 36.152344 225.910156 35.429688 224.472656 34.820312 L 224.457031 27.492188 L 217.914062 26.03125 L 214.785156 32.644531 C 213.238281 32.582031 211.679688 32.648438 210.113281 32.851562 L 206.4375 26.511719 L 200.035156 28.519531 L 200.636719 35.820312 C 199.234375 36.550781 197.914062 37.382812 196.683594 38.320312 L 190.339844 34.671875 L 185.796875 39.609375 L 189.96875 45.632812 C 189.132812 46.953125 188.410156 48.335938 187.804688 49.773438 L 180.476562 49.789062 L 179.015625 56.332031 L 185.628906 59.460938 C 185.566406 61.007812 185.632812 62.566406 185.832031 64.132812 L 179.496094 67.808594 "/><path style=" stroke:none;fill-rule:nonzero;fill:#caddff;fill-opacity:1;" d="M 141.699219 38.75 C 147.734375 36.859375 154.164062 40.21875 156.054688 46.257812 C 157.945312 52.292969 154.585938 58.71875 148.550781 60.609375 C 142.515625 62.503906 136.085938 59.140625 134.195312 53.105469 C 132.304688 47.070312 135.664062 40.644531 141.699219 38.75 Z M 122.496094 54.441406 L 123.828125 58.6875 L 128.671875 58.289062 C 129.15625 59.214844 129.707031 60.09375 130.328125 60.90625 L 127.910156 65.117188 L 131.183594 68.128906 L 135.179688 65.363281 C 136.054688 65.917969 136.972656 66.394531 137.921875 66.796875 L 137.933594 71.65625 L 142.273438 72.628906 L 144.351562 68.238281 C 145.375 68.285156 146.410156 68.234375 147.449219 68.105469 L 149.886719 72.308594 L 154.128906 70.976562 L 153.734375 66.132812 C 154.660156 65.652344 155.539062 65.097656 156.351562 64.480469 L 160.5625 66.894531 L 163.574219 63.621094 L 160.804688 59.625 C 161.359375 58.753906 161.839844 57.835938 162.242188 56.882812 L 167.101562 56.871094 L 168.070312 52.53125 L 163.683594 50.453125 C 163.726562 49.429688 163.679688 48.398438 163.550781 47.355469 L 167.753906 44.921875 L 166.421875 40.671875 L 161.578125 41.074219 C 161.09375 40.144531 160.542969 39.269531 159.921875 38.449219 L 162.339844 34.242188 L 159.066406 31.230469 L 155.070312 34 C 154.195312 33.445312 153.277344 32.964844 152.324219 32.5625 L 152.316406 27.707031 L 147.976562 26.734375 L 145.898438 31.121094 C 144.875 31.078125 143.839844 31.121094 142.804688 31.257812 L 140.363281 27.054688 L 136.117188 28.382812 L 136.515625 33.226562 C 135.589844 33.710938 134.710938 34.265625 133.894531 34.882812 L 129.6875 32.464844 L 126.675781 35.738281 L 129.441406 39.738281 C 128.890625 40.609375 128.410156 41.527344 128.007812 42.480469 L 123.148438 42.492188 L 122.179688 46.832031 L 126.566406 48.90625 C 126.523438 49.929688 126.570312 50.964844 126.703125 52 L 122.496094 54.441406 "/><path style=" stroke:none;fill-rule:nonzero;fill:#000000;fill-opacity:1;" d="M 478.089844 90 C 478.035156 90 477.984375 89.996094 477.929688 89.988281 C 477.375 89.902344 477 89.382812 477.085938 88.828125 L 477.902344 83.636719 C 477.992188 83.085938 478.515625 82.707031 479.0625 82.792969 C 479.613281 82.882812 479.996094 83.402344 479.90625 83.953125 L 479.089844 89.144531 C 479.011719 89.644531 478.578125 90 478.089844 90 "/><path style=" stroke:none;fill-rule:nonzero;fill:#000000;fill-opacity:1;" d="M 475.222656 108.175781 C 475.171875 108.175781 475.113281 108.171875 475.0625 108.160156 C 474.511719 108.074219 474.132812 107.558594 474.21875 107.003906 L 475.039062 101.808594 C 475.125 101.257812 475.648438 100.878906 476.195312 100.964844 C 476.75 101.054688 477.128906 101.574219 477.039062 102.125 L 476.226562 107.320312 C 476.144531 107.820312 475.710938 108.175781 475.222656 108.175781 "/><path style=" stroke:none;fill-rule:nonzero;fill:#000000;fill-opacity:1;" d="M 470.6875 95.386719 C 470.628906 95.386719 470.570312 95.382812 470.511719 95.371094 L 465.410156 94.488281 C 464.859375 94.394531 464.488281 93.871094 464.585938 93.320312 C 464.679688 92.765625 465.199219 92.398438 465.757812 92.492188 L 470.859375 93.375 C 471.410156 93.46875 471.78125 93.992188 471.6875 94.546875 C 471.597656 95.039062 471.171875 95.386719 470.6875 95.386719 "/><path style=" stroke:none;fill-rule:nonzero;fill:#000000;fill-opacity:1;" d="M 488.550781 98.472656 C 488.488281 98.472656 488.433594 98.46875 488.375 98.460938 L 483.273438 97.578125 C 482.71875 97.484375 482.347656 96.957031 482.449219 96.40625 C 482.542969 95.855469 483.058594 95.484375 483.621094 95.582031 L 488.722656 96.460938 C 489.273438 96.554688 489.644531 97.082031 489.550781 97.632812 C 489.460938 98.125 489.035156 98.472656 488.550781 98.472656 "/><path style=" stroke:none;fill-rule:nonzero;fill:#000000;fill-opacity:1;" d="M 451.75 449.273438 C 451.695312 449.273438 451.640625 449.269531 451.589844 449.261719 C 451.03125 449.171875 450.65625 448.65625 450.742188 448.101562 L 451.5625 442.910156 C 451.648438 442.355469 452.167969 441.976562 452.722656 442.0625 C 453.273438 442.152344 453.652344 442.671875 453.5625 443.226562 L 452.75 448.417969 C 452.667969 448.914062 452.234375 449.273438 451.75 449.273438 "/><path style=" stroke:none;fill-rule:nonzero;fill:#000000;fill-opacity:1;" d="M 448.878906 467.449219 C 448.824219 467.449219 448.769531 467.441406 448.71875 467.433594 C 448.164062 467.347656 447.789062 466.828125 447.871094 466.277344 L 448.691406 461.085938 C 448.777344 460.53125 449.300781 460.15625 449.855469 460.238281 C 450.40625 460.328125 450.785156 460.847656 450.695312 461.402344 L 449.878906 466.589844 C 449.800781 467.089844 449.367188 467.449219 448.878906 467.449219 "/><path style=" stroke:none;fill-rule:nonzero;fill:#000000;fill-opacity:1;" d="M 444.34375 454.660156 C 444.285156 454.660156 444.226562 454.65625 444.167969 454.648438 L 439.066406 453.765625 C 438.511719 453.671875 438.144531 453.144531 438.238281 452.59375 C 438.335938 452.042969 438.855469 451.671875 439.414062 451.765625 L 444.515625 452.648438 C 445.0625 452.746094 445.4375 453.269531 445.339844 453.820312 C 445.253906 454.3125 444.828125 454.660156 444.34375 454.660156 "/><path style=" stroke:none;fill-rule:nonzero;fill:#000000;fill-opacity:1;" d="M 462.203125 457.746094 C 462.148438 457.746094 462.089844 457.746094 462.03125 457.734375 L 456.929688 456.851562 C 456.378906 456.753906 456.007812 456.230469 456.101562 455.679688 C 456.199219 455.125 456.71875 454.757812 457.273438 454.855469 L 462.378906 455.734375 C 462.929688 455.832031 463.300781 456.355469 463.203125 456.910156 C 463.117188 457.402344 462.691406 457.746094 462.203125 457.746094 "/><path style=" stroke:none;fill-rule:nonzero;fill:#ffffff;fill-opacity:1;" d="M 393.125 475.878906 C 394.777344 475.644531 396.617188 475.777344 398.632812 476.453125 L 422.625 481.730469 C 422.625 481.730469 417.328125 488.238281 411.808594 488.613281 C 414.796875 493.257812 416.507812 497.386719 416.507812 497.386719 C 416.507812 497.386719 427.140625 500.023438 429.332031 500.996094 C 431.523438 501.96875 434.671875 503.039062 436.203125 505.328125 C 437.746094 507.617188 437.566406 511.066406 437.566406 511.066406 L 412.105469 509.464844 L 389.257812 490.332031 L 347.328125 511.132812 L 349.191406 485.300781 L 393.125 475.878906 "/><path style=" stroke:none;fill-rule:nonzero;fill:#000000;fill-opacity:1;" d="M 412.5 508.472656 L 436.535156 509.984375 C 436.464844 508.894531 436.214844 507.15625 435.363281 505.890625 C 434.210938 504.175781 431.820312 503.160156 429.898438 502.34375 C 429.554688 502.203125 429.230469 502.0625 428.921875 501.921875 C 427.1875 501.15625 419.195312 499.097656 416.261719 498.371094 C 415.949219 498.292969 415.691406 498.070312 415.570312 497.773438 C 415.554688 497.730469 413.851562 493.667969 410.953125 489.160156 C 410.757812 488.859375 410.738281 488.476562 410.902344 488.15625 C 411.0625 487.835938 411.378906 487.625 411.738281 487.601562 C 415.328125 487.359375 418.921875 484.167969 420.695312 482.347656 L 398.414062 477.441406 C 398.382812 477.4375 398.34375 477.429688 398.3125 477.414062 C 396.589844 476.839844 394.90625 476.660156 393.300781 476.878906 L 350.144531 486.132812 L 348.464844 509.4375 L 388.804688 489.425781 C 389.160156 489.246094 389.59375 489.296875 389.902344 489.554688 Z M 347.328125 512.152344 C 347.128906 512.152344 346.929688 512.09375 346.761719 511.976562 C 346.460938 511.773438 346.289062 511.425781 346.316406 511.0625 L 348.175781 485.226562 C 348.210938 484.777344 348.535156 484.40625 348.976562 484.308594 L 392.910156 474.886719 C 392.933594 474.882812 392.957031 474.878906 392.984375 474.875 C 394.894531 474.605469 396.886719 474.808594 398.902344 475.476562 L 422.839844 480.742188 C 423.1875 480.816406 423.464844 481.066406 423.582031 481.398438 C 423.695312 481.730469 423.632812 482.097656 423.410156 482.371094 C 423.207031 482.625 418.714844 488.078125 413.476562 489.371094 C 415.460938 492.636719 416.761719 495.441406 417.238281 496.523438 C 419.382812 497.0625 427.746094 499.183594 429.742188 500.070312 C 430.039062 500.207031 430.359375 500.339844 430.691406 500.476562 C 432.855469 501.398438 435.554688 502.542969 437.042969 504.761719 C 438.753906 507.300781 438.585938 510.960938 438.574219 511.117188 C 438.566406 511.386719 438.441406 511.640625 438.242188 511.824219 C 438.039062 512 437.773438 512.09375 437.503906 512.078125 L 412.039062 510.476562 C 411.824219 510.464844 411.617188 510.378906 411.453125 510.242188 L 389.109375 491.535156 L 347.777344 512.042969 C 347.636719 512.113281 347.476562 512.152344 347.328125 512.152344 "/><path style=" stroke:none;fill-rule:nonzero;fill:#5479f7;fill-opacity:1;" d="M 391.910156 497.738281 C 391.910156 497.738281 376.707031 474.082031 376.683594 474.046875 C 375.484375 472.1875 365.488281 475.160156 363.640625 475.265625 C 357.007812 475.648438 350.117188 474.566406 343.507812 473.835938 C 329.394531 472.269531 315.359375 470 301.476562 467.03125 C 290.136719 464.609375 278.730469 461.660156 268.683594 455.871094 C 255.457031 448.253906 248.515625 436.378906 243.214844 422.527344 C 239.210938 412.0625 234.4375 403.3125 228.464844 393.726562 C 219.625 379.546875 204.945312 367.90625 192.761719 361.859375 C 173.832031 352.472656 151.820312 347.9375 130.847656 352.121094 C 90.375 360.195312 62.699219 383.785156 62.699219 383.785156 C 40.679688 401.363281 0.0078125 462.660156 14.507812 492.175781 C 32.292969 528.375 80.230469 507.195312 80.230469 507.195312 C 80.230469 507.195312 84.886719 514.792969 74.886719 537.902344 C 62.734375 565.976562 80.339844 569.730469 80.339844 569.730469 C 121.265625 589.738281 229.671875 585.265625 220.429688 562.925781 C 210.535156 539.011719 210.367188 508.695312 210.367188 508.695312 C 224.046875 522.21875 253.671875 525.078125 253.671875 525.078125 C 253.671875 525.078125 278.679688 527.441406 294.5625 524.738281 C 383.441406 511.558594 391.910156 497.738281 391.910156 497.738281 "/><path style=" stroke:none;fill-rule:nonzero;fill:#000000;fill-opacity:1;" d="M 80.84375 489.539062 C 80.425781 489.539062 80.03125 489.277344 79.886719 488.855469 C 66.339844 449.65625 72.632812 417.992188 72.695312 417.675781 C 72.808594 417.128906 73.351562 416.773438 73.894531 416.886719 C 74.441406 417 74.796875 417.539062 74.683594 418.089844 C 74.617188 418.398438 68.445312 449.550781 81.804688 488.195312 C 81.988281 488.726562 81.707031 489.300781 81.175781 489.484375 C 81.066406 489.523438 80.953125 489.539062 80.84375 489.539062 "/><path style=" stroke:none;fill-rule:nonzero;fill:#000000;fill-opacity:1;" d="M 209.5625 509.917969 C 209.308594 509.917969 209.050781 509.824219 208.855469 509.628906 C 187.675781 488.945312 172.929688 440.90625 172.3125 438.871094 C 172.152344 438.332031 172.453125 437.769531 172.992188 437.605469 C 173.527344 437.441406 174.09375 437.746094 174.253906 438.28125 C 174.40625 438.773438 189.46875 487.863281 210.273438 508.179688 C 210.671875 508.570312 210.679688 509.210938 210.289062 509.613281 C 210.089844 509.816406 209.828125 509.917969 209.5625 509.917969 "/><path style=" stroke:none;fill-rule:nonzero;fill:#ffffff;fill-opacity:1;" d="M 153.957031 256.261719 C 162.136719 256.300781 169.675781 260.722656 173.78125 267.796875 C 175.683594 271.070312 177.410156 274.128906 177.761719 274.992188 C 178.558594 276.957031 180.308594 283.554688 186.738281 289.917969 C 187.375 290.546875 187.464844 291.539062 186.914062 292.242188 L 182.792969 297.511719 C 182.511719 297.875 182.394531 298.335938 182.472656 298.789062 C 182.960938 301.601562 185.414062 311.796875 184.691406 313.636719 C 183.152344 317.539062 173.828125 318.59375 171.066406 318.824219 C 170.546875 318.867188 170.085938 319.15625 169.832031 319.609375 C 168.9375 321.230469 166.574219 325.859375 164.636719 337.414062 C 161.679688 355.015625 178.460938 357.753906 175.042969 359.480469 C 151.199219 371.511719 107.296875 368.777344 109.84375 363.773438 C 111.9375 359.65625 136.027344 348.996094 138.269531 320.042969 C 139.664062 301.984375 114.378906 300.5 132.601562 266.128906 C 136.835938 258.140625 146.003906 256.226562 153.957031 256.261719 "/><path style=" stroke:none;fill-rule:nonzero;fill:#000000;fill-opacity:1;" d="M 110.777344 364.171875 C 110.886719 364.300781 111.273438 364.652344 112.503906 365.082031 C 121.078125 368.070312 153.894531 368.75 174.117188 358.808594 C 173.789062 358.550781 173.339844 358.234375 172.945312 357.957031 C 169.230469 355.359375 161.5 349.957031 163.636719 337.246094 C 165 329.121094 166.785156 323.019531 168.945312 319.121094 C 169.359375 318.375 170.121094 317.882812 170.980469 317.8125 C 176.214844 317.378906 182.699219 315.925781 183.746094 313.265625 C 184.191406 312.101562 182.695312 304.933594 182.058594 301.875 C 181.804688 300.667969 181.589844 299.621094 181.472656 298.964844 C 181.34375 298.234375 181.535156 297.472656 181.996094 296.886719 L 186.113281 291.617188 C 186.339844 291.328125 186.304688 290.914062 186.027344 290.640625 C 180.265625 284.9375 178.175781 279.113281 177.171875 276.316406 C 177.035156 275.933594 176.921875 275.613281 176.820312 275.371094 C 176.664062 274.980469 175.941406 273.539062 172.902344 268.304688 C 168.976562 261.539062 161.714844 257.3125 153.953125 257.277344 C 153.882812 257.277344 153.8125 257.277344 153.742188 257.277344 C 146.710938 257.277344 137.574219 258.910156 133.496094 266.605469 C 122.222656 287.871094 127.886719 296.019531 133.371094 303.894531 C 136.539062 308.453125 139.816406 313.164062 139.277344 320.117188 C 137.523438 342.804688 122.820312 354.320312 114.921875 360.503906 C 112.9375 362.0625 111.214844 363.40625 110.777344 364.171875 Z M 130.890625 369.023438 C 119.96875 369.023438 111.363281 367.636719 109.382812 365.652344 C 108.695312 364.964844 108.53125 364.109375 108.9375 363.3125 C 109.527344 362.15625 111.175781 360.863281 113.671875 358.90625 C 121.324219 352.917969 135.570312 341.761719 137.257812 319.960938 C 137.738281 313.726562 134.808594 309.515625 131.707031 305.054688 C 126.148438 297.066406 119.851562 288.015625 131.703125 265.652344 C 135.3125 258.84375 142.929688 255.246094 153.734375 255.246094 C 153.8125 255.246094 153.886719 255.246094 153.964844 255.246094 C 162.441406 255.285156 170.371094 259.902344 174.65625 267.289062 C 178.222656 273.425781 178.582031 274.316406 178.699219 274.609375 C 178.808594 274.871094 178.929688 275.21875 179.078125 275.632812 C 180.035156 278.289062 182.019531 283.820312 187.453125 289.195312 C 188.457031 290.191406 188.570312 291.773438 187.710938 292.867188 L 183.59375 298.136719 C 183.484375 298.273438 183.441406 298.445312 183.46875 298.617188 C 183.578125 299.242188 183.792969 300.269531 184.042969 301.464844 C 185.542969 308.652344 186.203125 312.570312 185.632812 314.007812 C 183.933594 318.320312 174.9375 319.519531 171.152344 319.832031 C 170.964844 319.847656 170.804688 319.949219 170.71875 320.101562 C 168.167969 324.710938 166.546875 332.152344 165.632812 337.578125 C 163.710938 349.027344 170.472656 353.757812 174.109375 356.296875 C 175.652344 357.378906 176.585938 358.027344 176.511719 359.058594 C 176.484375 359.445312 176.289062 359.984375 175.5 360.382812 C 162.960938 366.710938 144.996094 369.023438 130.890625 369.023438 "/><path style=" stroke:none;fill-rule:nonzero;fill:#000000;fill-opacity:1;" d="M 167.859375 284.097656 L 177.398438 272.160156 C 182.292969 266.035156 180.582031 257.011719 173.808594 253.0625 C 171.929688 251.96875 169.726562 250.824219 167.261719 249.765625 C 142.765625 239.214844 114.699219 256.621094 114.671875 283.292969 C 114.660156 294.207031 121.960938 306.863281 137.46875 318.109375 C 137.46875 318.109375 148.371094 309.515625 148.230469 300.21875 C 148.230469 300.21875 140.320312 290.832031 151.464844 286.085938 C 153.597656 285.175781 156.035156 285.246094 158.117188 286.269531 C 161.472656 287.921875 165.523438 287.019531 167.859375 284.097656 "/><path style=" stroke:none;fill-rule:nonzero;fill:#000000;fill-opacity:1;" d="M 153.328125 305.503906 C 150.15625 305.503906 146.109375 304.152344 143.101562 298.464844 C 142.839844 297.96875 143.027344 297.351562 143.523438 297.089844 C 144.019531 296.828125 144.632812 297.019531 144.894531 297.515625 C 149.644531 306.492188 157.097656 302.757812 157.414062 302.59375 C 157.910156 302.335938 158.519531 302.527344 158.78125 303.023438 C 159.039062 303.519531 158.851562 304.128906 158.355469 304.390625 C 158.3125 304.414062 156.171875 305.503906 153.328125 305.503906 "/><path style=" stroke:none;fill-rule:nonzero;fill:#000000;fill-opacity:1;" d="M 127.4375 257.972656 C 127.4375 257.972656 119.167969 229.359375 88.988281 234.746094 C 70.148438 238.109375 53.695312 250.769531 44.65625 271.425781 C 37.96875 286.714844 38.242188 300.246094 36.773438 316.269531 C 35.457031 330.601562 22.691406 340.175781 19.804688 353.804688 C 16.273438 370.445312 32.46875 382.445312 48.074219 379.351562 C 65.503906 375.902344 81.675781 357.675781 88.8125 342.410156 C 96.1875 326.632812 97.40625 309.105469 101.136719 292.3125 C 102.75 285.039062 103.972656 274.996094 109.761719 269.957031 C 112.734375 267.371094 122.515625 267.085938 124.207031 263.953125 C 124.210938 263.949219 127.4375 257.972656 127.4375 257.972656 "/><g clip-rule="nonzero" clip-path="url(#61fffb1ecd)"><path style=" stroke:none;fill-rule:nonzero;fill:#122620;fill-opacity:1;" d="M 341.414062 381.105469 L 330.4375 381.105469 C 331.757812 378.652344 332.808594 376.039062 333.566406 373.324219 L 346.476562 373.324219 C 345.238281 376.207031 343.515625 378.832031 341.414062 381.105469 Z M 296.394531 373.324219 L 309.300781 373.324219 C 310.054688 376.039062 311.105469 378.652344 312.421875 381.105469 L 301.453125 381.105469 C 299.351562 378.832031 297.628906 376.207031 296.394531 373.324219 Z M 314.648438 381.105469 C 313.246094 378.667969 312.105469 376.058594 311.300781 373.324219 L 331.566406 373.324219 C 330.757812 376.058594 329.613281 378.667969 328.207031 381.105469 Z M 318.792969 389.730469 C 312.941406 389.164062 307.632812 386.734375 303.449219 383.050781 L 313.519531 383.050781 C 315.023438 385.488281 316.796875 387.738281 318.792969 389.730469 Z M 329.335938 383.050781 L 339.421875 383.050781 C 335.234375 386.738281 329.914062 389.167969 324.054688 389.730469 C 326.058594 387.738281 327.832031 385.492188 329.335938 383.050781 Z M 321.425781 389.542969 C 319.316406 387.652344 317.453125 385.453125 315.851562 383.050781 L 327.003906 383.050781 C 325.40625 385.457031 323.539062 387.652344 321.425781 389.542969 Z M 295.652344 353.871094 L 347.214844 353.871094 C 348.152344 356.621094 348.667969 359.5625 348.667969 362.625 C 348.667969 365.6875 348.152344 368.628906 347.214844 371.378906 L 295.652344 371.378906 C 294.71875 368.628906 294.199219 365.6875 294.199219 362.625 C 294.199219 359.5625 294.71875 356.621094 295.652344 353.871094 Z M 301.453125 344.144531 L 312.421875 344.144531 C 311.105469 346.597656 310.054688 349.210938 309.300781 351.925781 L 296.394531 351.925781 C 297.628906 349.042969 299.351562 346.417969 301.453125 344.144531 Z M 328.207031 344.144531 C 329.613281 346.582031 330.757812 349.191406 331.566406 351.925781 L 311.300781 351.925781 C 312.105469 349.191406 313.246094 346.582031 314.648438 344.144531 Z M 324.054688 335.519531 C 329.914062 336.082031 335.234375 338.511719 339.421875 342.199219 L 329.335938 342.199219 C 327.832031 339.757812 326.058594 337.511719 324.054688 335.519531 Z M 313.519531 342.199219 L 303.449219 342.199219 C 307.632812 338.515625 312.941406 336.085938 318.792969 335.519531 C 316.796875 337.511719 315.023438 339.761719 313.519531 342.199219 Z M 321.425781 335.710938 C 323.539062 337.597656 325.40625 339.792969 327.003906 342.199219 L 315.851562 342.199219 C 317.453125 339.796875 319.316406 337.597656 321.425781 335.710938 Z M 346.476562 351.925781 L 333.566406 351.925781 C 332.808594 349.210938 331.757812 346.597656 330.4375 344.144531 L 341.414062 344.144531 C 343.515625 346.417969 345.238281 349.042969 346.476562 351.925781 Z M 321.433594 333.445312 C 321.429688 333.445312 321.425781 333.445312 321.425781 333.445312 C 321.421875 333.445312 321.421875 333.445312 321.421875 333.445312 C 305.339844 333.453125 292.253906 346.539062 292.253906 362.625 C 292.253906 378.710938 305.339844 391.796875 321.421875 391.804688 L 321.425781 391.804688 C 321.425781 391.804688 321.429688 391.804688 321.433594 391.804688 C 337.523438 391.804688 350.613281 378.714844 350.613281 362.625 C 350.613281 346.535156 337.523438 333.445312 321.433594 333.445312 "/></g><path style=" stroke:none;fill-rule:nonzero;fill:#122620;fill-opacity:1;" d="M 300.070312 367.742188 C 300.183594 368.164062 300.5625 368.453125 300.996094 368.460938 C 301 368.460938 301.003906 368.460938 301.007812 368.460938 C 301.4375 368.460938 301.820312 368.179688 301.941406 367.765625 L 303.925781 361.148438 L 305.914062 367.765625 C 306.035156 368.179688 306.414062 368.460938 306.84375 368.460938 C 306.847656 368.460938 306.851562 368.460938 306.855469 368.460938 C 307.292969 368.453125 307.667969 368.164062 307.785156 367.742188 L 310.703125 357.042969 L 308.824219 356.535156 L 306.800781 363.953125 L 304.859375 357.484375 C 304.738281 357.070312 304.355469 356.789062 303.925781 356.789062 C 303.496094 356.789062 303.117188 357.070312 302.996094 357.484375 L 301.054688 363.953125 L 299.03125 356.535156 L 297.152344 357.042969 L 300.070312 367.742188 "/><path style=" stroke:none;fill-rule:nonzero;fill:#122620;fill-opacity:1;" d="M 318.503906 368.460938 C 318.507812 368.460938 318.511719 368.460938 318.515625 368.460938 C 318.945312 368.460938 319.324219 368.179688 319.449219 367.765625 L 321.433594 361.148438 L 323.421875 367.765625 C 323.542969 368.179688 323.921875 368.460938 324.351562 368.460938 C 324.355469 368.460938 324.359375 368.460938 324.363281 368.460938 C 324.800781 368.453125 325.175781 368.164062 325.289062 367.742188 L 328.207031 357.042969 L 326.332031 356.535156 L 324.308594 363.953125 L 322.367188 357.484375 C 322.242188 357.070312 321.863281 356.789062 321.433594 356.789062 C 321.003906 356.789062 320.625 357.070312 320.503906 357.484375 L 318.5625 363.953125 L 316.539062 356.535156 L 314.660156 357.042969 L 317.578125 367.742188 C 317.691406 368.164062 318.066406 368.453125 318.503906 368.460938 "/><path style=" stroke:none;fill-rule:nonzero;fill:#122620;fill-opacity:1;" d="M 336.011719 368.460938 C 336.015625 368.460938 336.019531 368.460938 336.023438 368.460938 C 336.453125 368.460938 336.832031 368.179688 336.953125 367.765625 L 338.941406 361.148438 L 340.929688 367.765625 C 341.050781 368.179688 341.429688 368.460938 341.859375 368.460938 C 341.863281 368.460938 341.867188 368.460938 341.871094 368.460938 C 342.308594 368.453125 342.683594 368.164062 342.796875 367.742188 L 345.714844 357.042969 L 343.839844 356.535156 L 341.8125 363.953125 L 339.871094 357.484375 C 339.75 357.070312 339.371094 356.789062 338.941406 356.789062 C 338.511719 356.789062 338.132812 357.070312 338.011719 357.484375 L 336.070312 363.953125 L 334.042969 356.535156 L 332.167969 357.042969 L 335.085938 367.742188 C 335.199219 368.164062 335.574219 368.453125 336.011719 368.460938 "/></g></svg>