<svg xmlns="http://www.w3.org/2000/svg" xmlns:xlink="http://www.w3.org/1999/xlink" width="474" zoomAndPan="magnify" viewBox="0 0 355.5 355.500003" height="474" preserveAspectRatio="xMidYMid meet" version="1.2"><defs><clipPath id="5e0d185d6b"><path d="M 177.40625 201.425781 L 211.96875 201.425781 L 211.96875 235.992188 L 177.40625 235.992188 Z M 177.40625 201.425781 "/></clipPath></defs><g id="6a26849077"><path style=" stroke:none;fill-rule:nonzero;fill:#caddff;fill-opacity:1;" d="M 87.433594 97.53125 C 122.050781 62.730469 112.140625 40.925781 135.824219 24.8125 C 172.269531 0.0195312 240.289062 21.351562 280.414062 55.449219 C 329.5625 97.214844 354.917969 173.472656 326.035156 242.457031 C 295.273438 315.929688 214.332031 354.066406 142.109375 342.574219 C 77.613281 332.308594 14.210938 281.535156 7.859375 220.636719 C 7.167969 214.039062 4.128906 178.355469 25.449219 147.597656 C 43.070312 122.167969 59.996094 125.117188 87.433594 97.53125 "/><path style=" stroke:none;fill-rule:nonzero;fill:#99b9ff;fill-opacity:1;" d="M 59.4375 60.128906 C 82.398438 55.910156 103.597656 66.535156 106.792969 83.867188 C 108.222656 91.625 105.800781 99.40625 100.632812 106.019531 L 110.964844 121.886719 L 89.269531 116 C 84.003906 119.226562 77.808594 121.644531 71.003906 122.894531 C 48.042969 127.117188 26.84375 116.488281 23.648438 99.152344 C 20.457031 81.824219 36.480469 64.351562 59.4375 60.128906 "/><path style=" stroke:none;fill-rule:nonzero;fill:#000000;fill-opacity:1;" d="M 42.894531 63.257812 C 42.703125 63.257812 42.511719 63.167969 42.398438 62.996094 C 42.210938 62.71875 42.285156 62.347656 42.558594 62.164062 C 43.070312 61.824219 43.59375 61.488281 44.113281 61.164062 C 44.394531 60.992188 44.765625 61.078125 44.9375 61.359375 C 45.113281 61.640625 45.023438 62.011719 44.742188 62.183594 C 44.234375 62.496094 43.726562 62.824219 43.230469 63.15625 C 43.125 63.226562 43.011719 63.257812 42.894531 63.257812 "/><path style=" stroke:none;fill-rule:nonzero;fill:#000000;fill-opacity:1;" d="M 64.382812 118.992188 C 45.285156 118.992188 29.199219 108.878906 26.429688 93.84375 C 24.574219 83.785156 28.917969 73.40625 38.339844 65.363281 C 38.589844 65.148438 38.96875 65.175781 39.183594 65.429688 C 39.398438 65.679688 39.371094 66.058594 39.117188 66.273438 C 30.027344 74.027344 25.832031 84 27.609375 93.625 C 30.738281 110.605469 51.664062 121.042969 74.261719 116.886719 C 75.957031 116.574219 77.644531 116.183594 79.277344 115.722656 C 79.597656 115.632812 79.929688 115.820312 80.019531 116.136719 C 80.109375 116.457031 79.921875 116.789062 79.605469 116.878906 C 77.933594 117.347656 76.210938 117.746094 74.480469 118.066406 C 71.058594 118.695312 67.675781 118.992188 64.382812 118.992188 "/><path style=" stroke:none;fill-rule:nonzero;fill:#000000;fill-opacity:1;" d="M 114.335938 117.066406 C 114.28125 117.066406 114.230469 117.058594 114.175781 117.046875 L 92.730469 111.222656 C 91.171875 112.167969 89.53125 113.042969 87.847656 113.824219 C 87.546875 113.964844 87.191406 113.835938 87.050781 113.539062 C 86.910156 113.238281 87.042969 112.878906 87.34375 112.742188 C 89.0625 111.941406 90.738281 111.039062 92.324219 110.066406 C 92.464844 109.980469 92.636719 109.957031 92.792969 110 L 112.976562 115.476562 L 103.5 100.925781 C 103.359375 100.710938 103.371094 100.429688 103.53125 100.230469 C 108.765625 93.527344 110.910156 85.832031 109.570312 78.558594 C 108.0625 70.363281 102.398438 63.429688 93.625 59.03125 C 84.800781 54.605469 73.890625 53.277344 62.914062 55.300781 C 60.328125 55.773438 57.769531 56.433594 55.316406 57.257812 C 55.003906 57.359375 54.664062 57.195312 54.558594 56.878906 C 54.453125 56.566406 54.621094 56.226562 54.933594 56.121094 C 57.441406 55.28125 60.054688 54.605469 62.699219 54.121094 C 73.929688 52.054688 85.105469 53.421875 94.164062 57.960938 C 103.28125 62.53125 109.171875 69.769531 110.75 78.339844 C 112.128906 85.832031 109.996094 93.734375 104.738281 100.628906 L 114.835938 116.140625 C 114.972656 116.347656 114.964844 116.621094 114.820312 116.820312 C 114.703125 116.976562 114.523438 117.066406 114.335938 117.066406 "/><path style=" stroke:none;fill-rule:nonzero;fill:#5479f7;fill-opacity:1;" d="M 69.632812 83.273438 C 69.300781 83.273438 69.035156 83.003906 69.03125 82.675781 C 69.03125 82.34375 69.300781 82.078125 69.632812 82.074219 L 98.511719 82.007812 C 98.511719 82.007812 98.515625 82.007812 98.515625 82.007812 C 98.84375 82.007812 99.113281 82.273438 99.113281 82.605469 C 99.113281 82.9375 98.847656 83.203125 98.515625 83.207031 L 69.632812 83.273438 "/><path style=" stroke:none;fill-rule:nonzero;fill:#5479f7;fill-opacity:1;" d="M 36.523438 82.441406 C 36.191406 82.441406 35.925781 82.175781 35.921875 81.847656 C 35.921875 81.515625 36.1875 81.246094 36.519531 81.242188 L 64.113281 81.089844 C 64.117188 81.089844 64.117188 81.089844 64.117188 81.089844 C 64.445312 81.089844 64.714844 81.355469 64.71875 81.6875 C 64.71875 82.015625 64.453125 82.285156 64.121094 82.289062 L 36.527344 82.441406 C 36.523438 82.441406 36.523438 82.441406 36.523438 82.441406 "/><path style=" stroke:none;fill-rule:nonzero;fill:#5479f7;fill-opacity:1;" d="M 97.265625 90.777344 C 97.261719 90.777344 97.261719 90.777344 97.257812 90.777344 L 59.523438 90.308594 C 59.191406 90.304688 58.925781 90.035156 58.929688 89.703125 C 58.9375 89.375 59.203125 89.113281 59.53125 89.113281 C 59.53125 89.113281 59.535156 89.113281 59.539062 89.113281 L 97.273438 89.578125 C 97.601562 89.582031 97.867188 89.851562 97.863281 90.183594 C 97.859375 90.511719 97.59375 90.777344 97.265625 90.777344 "/><path style=" stroke:none;fill-rule:nonzero;fill:#5479f7;fill-opacity:1;" d="M 52.214844 90.222656 C 52.210938 90.222656 52.210938 90.222656 52.207031 90.222656 L 35.265625 90.011719 C 34.933594 90.007812 34.667969 89.738281 34.671875 89.40625 C 34.675781 89.078125 34.945312 88.816406 35.273438 88.816406 C 35.277344 88.816406 35.277344 88.816406 35.28125 88.816406 L 52.222656 89.023438 C 52.554688 89.027344 52.816406 89.300781 52.8125 89.632812 C 52.808594 89.957031 52.542969 90.222656 52.214844 90.222656 "/><path style=" stroke:none;fill-rule:nonzero;fill:#5479f7;fill-opacity:1;" d="M 98.339844 97.175781 C 98.339844 97.175781 98.339844 97.175781 98.335938 97.175781 L 84.511719 97.089844 C 84.179688 97.089844 83.914062 96.820312 83.914062 96.488281 C 83.917969 96.160156 84.1875 95.894531 84.515625 95.894531 C 84.515625 95.894531 84.515625 95.894531 84.519531 95.894531 L 98.34375 95.980469 C 98.675781 95.980469 98.941406 96.25 98.941406 96.582031 C 98.9375 96.910156 98.671875 97.175781 98.339844 97.175781 "/><path style=" stroke:none;fill-rule:nonzero;fill:#5479f7;fill-opacity:1;" d="M 81.21875 97.144531 C 81.214844 97.144531 81.210938 97.144531 81.210938 97.144531 L 36.339844 96.414062 C 36.007812 96.40625 35.746094 96.132812 35.75 95.804688 C 35.753906 95.472656 36.023438 95.203125 36.359375 95.214844 L 81.230469 95.945312 C 81.5625 95.953125 81.824219 96.222656 81.820312 96.554688 C 81.8125 96.882812 81.546875 97.144531 81.21875 97.144531 "/><path style=" stroke:none;fill-rule:nonzero;fill:#5479f7;fill-opacity:1;" d="M 287.863281 327.257812 L 139.191406 327.257812 C 132.78125 327.257812 128.246094 322.097656 129.054688 315.730469 L 165.660156 27.40625 C 166.46875 21.035156 172.320312 15.875 178.726562 15.875 L 319.933594 14.230469 C 336.140625 14.230469 338.339844 21.035156 337.535156 27.40625 L 300.925781 315.730469 C 300.117188 322.097656 294.265625 327.257812 287.863281 327.257812 "/><path style=" stroke:none;fill-rule:nonzero;fill:#ffffff;fill-opacity:1;" d="M 278.914062 327.257812 L 130.242188 327.257812 C 123.835938 327.257812 119.300781 322.070312 120.105469 315.671875 L 156.714844 25.875 C 157.523438 19.476562 163.371094 14.289062 169.777344 14.289062 L 318.449219 14.289062 C 324.855469 14.289062 329.398438 19.476562 328.585938 25.875 L 291.980469 315.671875 C 291.171875 322.070312 285.320312 327.257812 278.914062 327.257812 "/><path style=" stroke:none;fill-rule:nonzero;fill:#caddff;fill-opacity:1;" d="M 128.582031 316.070312 L 163.535156 39.363281 C 163.71875 37.886719 165.070312 36.6875 166.546875 36.6875 L 316.019531 36.6875 C 317.5 36.6875 318.546875 37.886719 318.359375 39.363281 L 283.40625 316.070312 C 283.222656 317.546875 281.871094 318.746094 280.390625 318.746094 L 130.917969 318.746094 C 129.441406 318.746094 128.390625 317.546875 128.582031 316.070312 "/><path style=" stroke:none;fill-rule:nonzero;fill:#caddff;fill-opacity:1;" d="M 242.253906 29.023438 C 239.855469 29.023438 238.152344 27.082031 238.457031 24.683594 C 238.757812 22.289062 240.949219 20.34375 243.347656 20.34375 C 245.75 20.34375 247.449219 22.289062 247.148438 24.683594 C 246.84375 27.082031 244.65625 29.023438 242.253906 29.023438 "/><path style=" stroke:none;fill-rule:nonzero;fill:#000000;fill-opacity:1;" d="M 278.917969 327.855469 L 156.203125 327.855469 C 155.871094 327.855469 155.601562 327.589844 155.601562 327.257812 C 155.601562 326.925781 155.871094 326.660156 156.203125 326.660156 L 278.917969 326.660156 C 285.019531 326.660156 290.617188 321.695312 291.382812 315.597656 L 327.992188 25.800781 C 328.359375 22.863281 327.566406 20.105469 325.746094 18.046875 C 323.949219 16.007812 321.359375 14.886719 318.453125 14.886719 L 169.777344 14.886719 C 163.675781 14.886719 158.078125 19.851562 157.308594 25.949219 L 133.222656 216.640625 C 133.179688 216.964844 132.882812 217.199219 132.550781 217.15625 C 132.222656 217.117188 131.992188 216.816406 132.03125 216.488281 L 156.121094 25.800781 C 156.960938 19.121094 163.089844 13.6875 169.777344 13.6875 L 318.453125 13.6875 C 321.703125 13.6875 324.613281 14.957031 326.644531 17.253906 C 328.695312 19.578125 329.597656 22.664062 329.179688 25.949219 L 292.574219 315.746094 C 291.730469 322.425781 285.601562 327.855469 278.917969 327.855469 "/><path style=" stroke:none;fill-rule:nonzero;fill:#000000;fill-opacity:1;" d="M 280.390625 319.34375 L 231.734375 319.34375 C 231.402344 319.34375 231.132812 319.074219 231.132812 318.746094 C 231.132812 318.414062 231.402344 318.144531 231.734375 318.144531 L 280.390625 318.144531 C 281.578125 318.144531 282.664062 317.183594 282.8125 315.996094 L 317.765625 39.289062 C 317.835938 38.742188 317.691406 38.234375 317.359375 37.859375 C 317.03125 37.492188 316.558594 37.289062 316.019531 37.289062 L 166.550781 37.289062 C 165.367188 37.289062 164.277344 38.25 164.128906 39.4375 L 139.9375 230.945312 C 139.894531 231.277344 139.59375 231.507812 139.265625 231.46875 C 138.941406 231.425781 138.707031 231.125 138.746094 230.796875 L 162.9375 39.289062 C 163.164062 37.523438 164.78125 36.089844 166.550781 36.089844 L 316.019531 36.089844 C 316.90625 36.089844 317.703125 36.4375 318.257812 37.070312 C 318.824219 37.707031 319.070312 38.546875 318.957031 39.4375 L 284 316.144531 C 283.78125 317.910156 282.160156 319.34375 280.390625 319.34375 "/><path style=" stroke:none;fill-rule:nonzero;fill:#000000;fill-opacity:1;" d="M 147.960938 202.917969 C 147.960938 202.894531 147.960938 202.871094 147.960938 202.84375 C 148.113281 195 152.976562 187.003906 162.410156 179.082031 C 169.023438 173.527344 175.53125 170.03125 175.804688 169.886719 C 177.988281 168.722656 180.703125 169.542969 181.871094 171.726562 C 183.035156 173.90625 182.214844 176.617188 180.03125 177.78125 C 173.671875 181.191406 157.128906 192.359375 156.921875 203.015625 C 156.921875 203.035156 156.921875 203.050781 156.921875 203.066406 C 156.867188 206.445312 157.867188 209.074219 159.984375 211.105469 C 165.046875 215.964844 175.320312 216.480469 178.847656 216.269531 C 181.320312 216.125 183.441406 218.003906 183.589844 220.472656 C 183.734375 222.9375 181.851562 225.058594 179.382812 225.207031 C 178.707031 225.25 162.675781 226.101562 153.777344 217.5625 C 149.820312 213.765625 147.863281 208.839844 147.960938 202.917969 "/><path style=" stroke:none;fill-rule:nonzero;fill:#5479f7;fill-opacity:1;" d="M 179.730469 234.875 L 180.164062 208.367188 C 180.207031 205.894531 182.242188 203.925781 184.71875 203.964844 C 187.195312 204.007812 189.167969 206.042969 189.128906 208.515625 L 188.691406 235.023438 C 188.652344 237.492188 186.613281 239.464844 184.136719 239.425781 C 181.664062 239.386719 179.691406 237.347656 179.730469 234.875 "/><path style=" stroke:none;fill-rule:nonzero;fill:#5479f7;fill-opacity:1;" d="M 143.542969 122.910156 L 152.90625 122.910156 C 153.277344 122.910156 153.578125 122.609375 153.578125 122.238281 L 153.578125 94.28125 C 153.578125 93.910156 153.277344 93.609375 152.90625 93.609375 L 143.542969 93.609375 C 141.574219 93.609375 139.980469 95.199219 139.980469 97.164062 L 139.980469 119.355469 C 139.980469 121.320312 141.574219 122.910156 143.542969 122.910156 "/><path style=" stroke:none;fill-rule:nonzero;fill:#ffffff;fill-opacity:1;" d="M 282.699219 122.910156 L 273.226562 122.910156 L 273.226562 96.441406 L 282.699219 96.441406 C 284.976562 96.441406 286.824219 98.285156 286.824219 100.558594 L 286.824219 118.789062 C 286.824219 121.066406 284.976562 122.910156 282.699219 122.910156 "/><path style=" stroke:none;fill-rule:nonzero;fill:#000000;fill-opacity:1;" d="M 273.828125 122.3125 L 275.140625 122.3125 C 281.253906 122.3125 286.222656 117.34375 286.222656 111.238281 L 286.222656 108.109375 C 286.222656 102.003906 281.253906 97.039062 275.140625 97.039062 L 273.828125 97.039062 Z M 275.140625 123.507812 L 273.226562 123.507812 C 272.894531 123.507812 272.628906 123.242188 272.628906 122.910156 L 272.628906 96.441406 C 272.628906 96.109375 272.894531 95.839844 273.226562 95.839844 L 275.140625 95.839844 C 281.914062 95.839844 287.425781 101.34375 287.425781 108.109375 L 287.425781 111.238281 C 287.425781 118.003906 281.914062 123.507812 275.140625 123.507812 "/><path style=" stroke:none;fill-rule:nonzero;fill:#ffffff;fill-opacity:1;" d="M 277.511719 108.582031 C 277.511719 80.136719 248.808594 50.714844 213.402344 50.714844 C 177.996094 50.714844 149.292969 80.136719 149.292969 108.582031 C 149.292969 137.027344 177.996094 153.71875 213.402344 153.71875 C 248.808594 153.71875 277.511719 137.027344 277.511719 108.582031 "/><path style=" stroke:none;fill-rule:nonzero;fill:#000000;fill-opacity:1;" d="M 213.402344 51.3125 C 177.050781 51.3125 149.894531 81.546875 149.894531 108.582031 C 149.894531 121.933594 156.292969 133.25 168.402344 141.320312 C 179.828125 148.929688 195.808594 153.117188 213.402344 153.117188 C 230.996094 153.117188 246.976562 148.929688 258.398438 141.320312 C 270.507812 133.25 276.910156 121.933594 276.910156 108.582031 C 276.910156 81.546875 249.75 51.3125 213.402344 51.3125 Z M 213.402344 154.316406 C 195.574219 154.316406 179.355469 150.054688 167.738281 142.316406 C 155.28125 134.015625 148.695312 122.351562 148.695312 108.582031 C 148.695312 94.472656 155.605469 79.882812 167.660156 68.546875 C 180.296875 56.664062 196.542969 50.117188 213.402344 50.117188 C 230.265625 50.117188 246.511719 56.664062 259.144531 68.546875 C 271.195312 79.882812 278.109375 94.472656 278.109375 108.582031 C 278.109375 122.351562 271.527344 134.015625 259.066406 142.316406 C 247.449219 150.054688 231.230469 154.316406 213.402344 154.316406 "/><path style=" stroke:none;fill-rule:nonzero;fill:#ffffff;fill-opacity:1;" d="M 197.34375 162.265625 L 229.460938 162.265625 C 243.535156 162.265625 254.949219 173.660156 254.949219 187.722656 C 254.949219 197.011719 254.042969 206.277344 252.238281 215.390625 L 247.621094 238.75 C 244.394531 255.074219 230.0625 266.84375 213.402344 266.84375 C 196.742188 266.84375 182.410156 255.074219 179.183594 238.75 L 174.566406 215.390625 C 172.765625 206.277344 171.855469 197.011719 171.855469 187.722656 C 171.855469 173.660156 183.269531 162.265625 197.34375 162.265625 "/><path style=" stroke:none;fill-rule:nonzero;fill:#000000;fill-opacity:1;" d="M 197.34375 162.863281 C 183.621094 162.863281 172.457031 174.011719 172.457031 187.722656 C 172.457031 196.953125 173.367188 206.222656 175.15625 215.277344 L 179.773438 238.636719 C 182.933594 254.632812 197.078125 266.242188 213.402344 266.242188 C 229.726562 266.242188 243.871094 254.632812 247.035156 238.636719 L 251.652344 215.277344 C 253.441406 206.222656 254.347656 196.953125 254.347656 187.722656 C 254.347656 174.011719 243.183594 162.863281 229.460938 162.863281 Z M 213.402344 267.441406 C 196.507812 267.441406 181.871094 255.425781 178.597656 238.867188 L 173.976562 215.507812 C 172.175781 206.378906 171.257812 197.03125 171.257812 187.722656 C 171.257812 173.355469 182.960938 161.664062 197.34375 161.664062 L 229.460938 161.664062 C 243.84375 161.664062 255.546875 173.355469 255.546875 187.722656 C 255.546875 197.03125 254.632812 206.378906 252.828125 215.507812 L 248.210938 238.867188 C 244.9375 255.425781 230.300781 267.441406 213.402344 267.441406 "/><path style=" stroke:none;fill-rule:nonzero;fill:#caddff;fill-opacity:1;" d="M 211.339844 218.671875 L 215.46875 218.671875 C 223.984375 218.671875 230.882812 211.777344 230.882812 203.273438 L 230.882812 162.265625 L 195.921875 162.265625 L 195.921875 203.273438 C 195.921875 211.777344 202.824219 218.671875 211.339844 218.671875 "/><path style=" stroke:none;fill-rule:nonzero;fill:#000000;fill-opacity:1;" d="M 230.882812 162.863281 L 195.921875 162.863281 C 195.589844 162.863281 195.324219 162.59375 195.324219 162.265625 C 195.324219 161.933594 195.589844 161.664062 195.921875 161.664062 L 230.882812 161.664062 C 231.214844 161.664062 231.484375 161.933594 231.484375 162.265625 C 231.484375 162.59375 231.214844 162.863281 230.882812 162.863281 "/><path style=" stroke:none;fill-rule:nonzero;fill:#000000;fill-opacity:1;" d="M 170.300781 100.046875 L 232.035156 100.046875 C 238.449219 100.046875 243.648438 105.640625 243.648438 112.546875 L 243.648438 120.699219 C 243.648438 125.964844 240.835938 131.542969 235.984375 132.453125 C 218.875 135.664062 183.460938 135.664062 166.355469 132.453125 C 161.503906 131.542969 158.6875 125.964844 158.6875 120.699219 L 158.6875 112.546875 C 158.6875 105.640625 163.890625 100.046875 170.300781 100.046875 "/><path style=" stroke:none;fill-rule:nonzero;fill:#5479f7;fill-opacity:1;" d="M 215.675781 116.453125 C 215.675781 118.769531 217.417969 120.644531 219.566406 120.644531 C 221.714844 120.644531 223.457031 118.769531 223.457031 116.453125 C 223.457031 114.140625 221.714844 112.265625 219.566406 112.265625 C 217.417969 112.265625 215.675781 114.140625 215.675781 116.453125 "/><path style=" stroke:none;fill-rule:nonzero;fill:#5479f7;fill-opacity:1;" d="M 174.285156 116.453125 C 174.285156 118.769531 176.027344 120.644531 178.175781 120.644531 C 180.324219 120.644531 182.066406 118.769531 182.066406 116.453125 C 182.066406 114.140625 180.324219 112.265625 178.175781 112.265625 C 176.027344 112.265625 174.285156 114.140625 174.285156 116.453125 "/><path style=" stroke:none;fill-rule:nonzero;fill:#5479f7;fill-opacity:1;" d="M 238.875 141.074219 C 238.621094 141.074219 238.390625 140.914062 238.304688 140.664062 C 238.203125 140.351562 238.371094 140.011719 238.6875 139.90625 L 258.398438 133.425781 C 267.386719 130.46875 272.867188 121.546875 271.4375 112.207031 L 270.015625 102.945312 C 269.96875 102.617188 270.191406 102.3125 270.519531 102.261719 C 270.847656 102.210938 271.152344 102.4375 271.203125 102.765625 L 272.621094 112.023438 C 274.140625 121.945312 268.320312 131.425781 258.773438 134.5625 L 239.0625 141.042969 C 239.003906 141.066406 238.9375 141.074219 238.875 141.074219 "/><path style=" stroke:none;fill-rule:nonzero;fill:#5479f7;fill-opacity:1;" d="M 279.886719 98.960938 C 279.621094 98.960938 279.378906 98.785156 279.308594 98.515625 C 279.277344 98.394531 275.96875 86.175781 267.285156 74.320312 C 259.300781 63.425781 245 50.605469 222.160156 51.421875 C 221.839844 51.429688 221.550781 51.171875 221.542969 50.84375 C 221.53125 50.511719 221.789062 50.234375 222.121094 50.222656 C 232.429688 49.859375 241.933594 52.160156 250.339844 57.066406 C 257.058594 60.984375 263.089844 66.5625 268.273438 73.644531 C 277.085938 85.679688 280.433594 98.082031 280.46875 98.207031 C 280.550781 98.527344 280.359375 98.855469 280.039062 98.941406 C 279.988281 98.953125 279.9375 98.960938 279.886719 98.960938 "/><path style=" stroke:none;fill-rule:nonzero;fill:#99b9ff;fill-opacity:1;" d="M 263.078125 112.785156 C 262.019531 104.449219 267.367188 96.90625 275.019531 95.941406 C 275.859375 95.835938 278.96875 95.753906 279.789062 95.808594 C 286.425781 96.253906 289.851562 101.859375 290.789062 109.285156 C 291.804688 117.289062 288.75 124.765625 281.582031 126.191406 C 281.285156 126.25 279.167969 126.417969 278.855469 126.417969 C 270.46875 126.449219 264.132812 121.125 263.078125 112.785156 "/><path style=" stroke:none;fill-rule:nonzero;fill:#5479f7;fill-opacity:1;" d="M 266.382812 112.515625 C 265.492188 104.160156 270.988281 96.722656 278.65625 95.90625 C 286.328125 95.089844 293.269531 101.199219 294.164062 109.558594 C 295.054688 117.914062 289.558594 125.347656 281.890625 126.167969 C 274.21875 126.984375 267.277344 120.871094 266.382812 112.515625 "/><path style=" stroke:none;fill-rule:nonzero;fill:#5479f7;fill-opacity:1;" d="M 243.320312 143.394531 L 227.96875 144.851562 C 227.378906 144.90625 226.855469 144.472656 226.800781 143.886719 L 226.351562 139.167969 C 226.292969 138.582031 226.730469 138.054688 227.316406 138 L 242.667969 136.542969 C 243.257812 136.488281 243.78125 136.921875 243.835938 137.507812 L 244.285156 142.226562 C 244.339844 142.8125 243.90625 143.339844 243.320312 143.394531 "/><path style=" stroke:none;fill-rule:nonzero;fill:#99b9ff;fill-opacity:1;" d="M 180.375 252.667969 L 240.148438 252.667969 L 216.929688 189.953125 L 157.15625 189.953125 L 180.375 252.667969 "/><path style=" stroke:none;fill-rule:nonzero;fill:#000000;fill-opacity:1;" d="M 180.792969 252.070312 L 239.289062 252.070312 L 216.515625 190.554688 L 158.019531 190.554688 Z M 240.148438 253.269531 L 180.375 253.269531 C 180.125 253.269531 179.898438 253.109375 179.8125 252.875 L 156.59375 190.160156 C 156.527344 189.976562 156.554688 189.773438 156.664062 189.609375 C 156.777344 189.449219 156.960938 189.355469 157.15625 189.355469 L 216.929688 189.355469 C 217.183594 189.355469 217.40625 189.511719 217.492188 189.746094 L 240.710938 252.460938 C 240.78125 252.644531 240.753906 252.851562 240.640625 253.011719 C 240.527344 253.171875 240.34375 253.269531 240.148438 253.269531 "/><path style=" stroke:none;fill-rule:nonzero;fill:#000000;fill-opacity:1;" d="M 254.410156 237.097656 C 263.1875 237.097656 275.070312 235.847656 282.683594 230.015625 C 287.070312 226.65625 289.632812 222.21875 290.304688 216.828125 C 293.296875 192.625 264.0625 178.773438 262.816406 178.195312 C 260.570312 177.15625 257.90625 178.128906 256.863281 180.371094 C 255.824219 182.613281 256.796875 185.269531 259.035156 186.3125 C 259.28125 186.429688 283.601562 198.007812 281.40625 215.730469 C 281.042969 218.6875 279.675781 221.039062 277.230469 222.910156 C 268.855469 229.324219 246.777344 229.164062 240.449219 228.273438 C 237.996094 227.929688 236.796875 229.550781 236.453125 232 C 236.109375 234.445312 237.988281 236.785156 240.449219 237.054688 C 243.996094 237.445312 248.15625 237.097656 254.410156 237.097656 "/><path style=" stroke:none;fill-rule:nonzero;fill:#000000;fill-opacity:1;" d="M 221.332031 243.1875 L 229.9375 243.1875 C 234.640625 243.1875 238.539062 239.664062 239.007812 234.992188 L 239.308594 232 C 239.5625 229.445312 238.722656 226.886719 236.996094 224.984375 C 235.273438 223.082031 232.808594 221.992188 230.238281 221.992188 L 216.511719 221.992188 C 214.035156 221.992188 212.03125 223.992188 212.03125 226.46875 C 212.03125 228.9375 214.035156 230.941406 216.511719 230.941406 L 230.238281 230.941406 C 230.261719 230.941406 230.304688 230.941406 230.351562 230.992188 C 230.394531 231.039062 230.390625 231.082031 230.386719 231.109375 L 230.089844 234.101562 C 230.082031 234.179688 230.015625 234.234375 229.9375 234.234375 L 221.332031 234.234375 C 218.859375 234.234375 216.851562 236.238281 216.851562 238.710938 C 216.851562 241.183594 218.859375 243.1875 221.332031 243.1875 "/><path style=" stroke:none;fill-rule:nonzero;fill:#99b9ff;fill-opacity:1;" d="M 123.253906 25.925781 C 128.636719 24.242188 134.367188 27.234375 136.054688 32.609375 C 137.738281 37.988281 134.742188 43.710938 129.363281 45.394531 C 123.980469 47.082031 118.25 44.085938 116.566406 38.710938 C 114.878906 33.335938 117.875 27.613281 123.253906 25.925781 Z M 106.132812 39.898438 L 107.320312 43.683594 L 111.636719 43.328125 C 112.070312 44.15625 112.5625 44.9375 113.113281 45.660156 L 110.957031 49.410156 L 113.878906 52.089844 L 117.441406 49.628906 C 118.222656 50.121094 119.039062 50.546875 119.886719 50.90625 L 119.898438 55.234375 L 123.769531 56.097656 L 125.617188 52.191406 C 126.53125 52.226562 127.453125 52.1875 128.378906 52.070312 L 130.554688 55.8125 L 134.339844 54.628906 L 133.984375 50.316406 C 134.8125 49.882812 135.59375 49.390625 136.320312 48.839844 L 140.074219 50.996094 L 142.757812 48.078125 L 140.292969 44.515625 C 140.785156 43.742188 141.210938 42.921875 141.570312 42.074219 L 145.902344 42.066406 L 146.769531 38.199219 L 142.855469 36.351562 C 142.894531 35.441406 142.855469 34.519531 142.738281 33.59375 L 146.484375 31.421875 L 145.296875 27.640625 L 140.980469 27.996094 C 140.546875 27.167969 140.054688 26.386719 139.503906 25.660156 L 141.660156 21.914062 L 138.738281 19.230469 L 135.175781 21.695312 C 134.398438 21.203125 133.578125 20.777344 132.730469 20.417969 L 132.71875 16.089844 L 128.851562 15.222656 L 127 19.132812 C 126.085938 19.09375 125.164062 19.132812 124.238281 19.253906 L 122.066406 15.511719 L 118.28125 16.695312 L 118.632812 21.007812 C 117.808594 21.4375 117.023438 21.929688 116.296875 22.484375 L 112.546875 20.328125 L 109.859375 23.242188 L 112.328125 26.804688 C 111.832031 27.582031 111.40625 28.398438 111.046875 29.246094 L 106.714844 29.257812 L 105.847656 33.121094 L 109.761719 34.972656 C 109.722656 35.882812 109.765625 36.804688 109.882812 37.726562 L 106.132812 39.898438 "/><path style=" stroke:none;fill-rule:nonzero;fill:#caddff;fill-opacity:1;" d="M 83.785156 22.738281 C 87.355469 21.621094 91.15625 23.605469 92.273438 27.171875 C 93.390625 30.734375 91.40625 34.53125 87.835938 35.648438 C 84.265625 36.765625 80.46875 34.78125 79.347656 31.214844 C 78.230469 27.652344 80.214844 23.855469 83.785156 22.738281 Z M 72.429688 32.003906 L 73.21875 34.511719 L 76.082031 34.277344 C 76.367188 34.824219 76.695312 35.34375 77.0625 35.824219 L 75.632812 38.3125 L 77.566406 40.089844 L 79.929688 38.453125 C 80.445312 38.78125 80.988281 39.066406 81.554688 39.304688 L 81.558594 42.171875 L 84.125 42.746094 L 85.351562 40.15625 C 85.957031 40.179688 86.570312 40.152344 87.183594 40.074219 L 88.625 42.558594 L 91.136719 41.773438 L 90.902344 38.910156 C 91.449219 38.628906 91.96875 38.300781 92.449219 37.933594 L 94.9375 39.359375 L 96.71875 37.425781 L 95.082031 35.066406 C 95.410156 34.550781 95.695312 34.011719 95.933594 33.449219 L 98.804688 33.441406 L 99.378906 30.878906 L 96.785156 29.648438 C 96.8125 29.046875 96.78125 28.433594 96.707031 27.820312 L 99.191406 26.382812 L 98.40625 23.875 L 95.539062 24.109375 C 95.253906 23.558594 94.925781 23.042969 94.5625 22.558594 L 95.992188 20.074219 L 94.054688 18.296875 L 91.691406 19.933594 C 91.175781 19.605469 90.632812 19.320312 90.070312 19.082031 L 90.0625 16.214844 L 87.496094 15.640625 L 86.269531 18.230469 C 85.664062 18.207031 85.050781 18.230469 84.4375 18.3125 L 82.996094 15.828125 L 80.484375 16.613281 L 80.722656 19.476562 C 80.171875 19.761719 79.65625 20.085938 79.171875 20.453125 L 76.683594 19.023438 L 74.902344 20.957031 L 76.539062 23.320312 C 76.210938 23.835938 75.929688 24.378906 75.691406 24.941406 L 72.816406 24.945312 L 72.242188 27.511719 L 74.835938 28.738281 C 74.8125 29.339844 74.839844 29.953125 74.917969 30.5625 L 72.429688 32.003906 "/><path style=" stroke:none;fill-rule:nonzero;fill:#000000;fill-opacity:1;" d="M 282.691406 53.007812 C 282.660156 53.007812 282.628906 53.003906 282.59375 53 C 282.269531 52.949219 282.046875 52.644531 282.097656 52.316406 L 282.578125 49.25 C 282.632812 48.921875 282.941406 48.699219 283.265625 48.75 C 283.59375 48.804688 283.816406 49.109375 283.765625 49.433594 L 283.28125 52.5 C 283.234375 52.796875 282.980469 53.007812 282.691406 53.007812 "/><path style=" stroke:none;fill-rule:nonzero;fill:#000000;fill-opacity:1;" d="M 280.996094 63.742188 C 280.964844 63.742188 280.929688 63.738281 280.902344 63.734375 C 280.574219 63.683594 280.351562 63.378906 280.402344 63.050781 L 280.886719 59.984375 C 280.9375 59.65625 281.246094 59.433594 281.570312 59.484375 C 281.898438 59.535156 282.125 59.84375 282.070312 60.167969 L 281.589844 63.238281 C 281.542969 63.53125 281.285156 63.742188 280.996094 63.742188 "/><path style=" stroke:none;fill-rule:nonzero;fill:#000000;fill-opacity:1;" d="M 278.3125 56.1875 C 278.277344 56.1875 278.246094 56.1875 278.210938 56.179688 L 275.195312 55.660156 C 274.867188 55.601562 274.648438 55.292969 274.703125 54.96875 C 274.761719 54.640625 275.070312 54.421875 275.398438 54.480469 L 278.414062 55 C 278.738281 55.054688 278.960938 55.367188 278.902344 55.695312 C 278.851562 55.984375 278.601562 56.1875 278.3125 56.1875 "/><path style=" stroke:none;fill-rule:nonzero;fill:#000000;fill-opacity:1;" d="M 288.875 58.011719 C 288.839844 58.011719 288.804688 58.011719 288.769531 58.003906 L 285.753906 57.484375 C 285.429688 57.425781 285.210938 57.117188 285.265625 56.792969 C 285.324219 56.464844 285.628906 56.246094 285.960938 56.304688 L 288.976562 56.824219 C 289.304688 56.878906 289.523438 57.191406 289.464844 57.515625 C 289.414062 57.808594 289.160156 58.011719 288.875 58.011719 "/><path style=" stroke:none;fill-rule:nonzero;fill:#000000;fill-opacity:1;" d="M 267.113281 265.207031 C 267.082031 265.207031 267.050781 265.203125 267.019531 265.199219 C 266.691406 265.148438 266.46875 264.839844 266.519531 264.515625 L 267.007812 261.449219 C 267.054688 261.121094 267.363281 260.894531 267.691406 260.949219 C 268.015625 261 268.242188 261.304688 268.1875 261.632812 L 267.707031 264.699219 C 267.660156 264.996094 267.402344 265.207031 267.113281 265.207031 "/><path style=" stroke:none;fill-rule:nonzero;fill:#000000;fill-opacity:1;" d="M 265.417969 275.941406 C 265.386719 275.941406 265.355469 275.9375 265.324219 275.933594 C 264.996094 275.882812 264.773438 275.574219 264.824219 275.25 L 265.308594 272.183594 C 265.359375 271.855469 265.667969 271.632812 265.996094 271.683594 C 266.320312 271.734375 266.546875 272.042969 266.492188 272.367188 L 266.007812 275.433594 C 265.960938 275.730469 265.707031 275.941406 265.417969 275.941406 "/><path style=" stroke:none;fill-rule:nonzero;fill:#000000;fill-opacity:1;" d="M 262.738281 268.386719 C 262.703125 268.386719 262.667969 268.386719 262.632812 268.378906 L 259.617188 267.859375 C 259.289062 267.804688 259.070312 267.492188 259.125 267.167969 C 259.183594 266.839844 259.492188 266.621094 259.820312 266.679688 L 262.839844 267.199219 C 263.164062 267.257812 263.382812 267.566406 263.324219 267.890625 C 263.277344 268.183594 263.023438 268.386719 262.738281 268.386719 "/><path style=" stroke:none;fill-rule:nonzero;fill:#000000;fill-opacity:1;" d="M 273.296875 270.210938 C 273.265625 270.210938 273.230469 270.210938 273.195312 270.203125 L 270.179688 269.683594 C 269.851562 269.625 269.632812 269.316406 269.691406 268.988281 C 269.746094 268.664062 270.054688 268.445312 270.382812 268.503906 L 273.402344 269.023438 C 273.726562 269.078125 273.945312 269.390625 273.886719 269.714844 C 273.839844 270.007812 273.585938 270.210938 273.296875 270.210938 "/><path style=" stroke:none;fill-rule:nonzero;fill:#ffffff;fill-opacity:1;" d="M 232.453125 280.921875 C 233.429688 280.78125 234.515625 280.859375 235.710938 281.257812 L 249.894531 284.375 C 249.894531 284.375 246.761719 288.21875 243.5 288.441406 C 245.265625 291.183594 246.277344 293.621094 246.277344 293.621094 C 246.277344 293.621094 252.5625 295.179688 253.859375 295.757812 C 255.15625 296.328125 257.019531 296.960938 257.925781 298.3125 C 258.835938 299.664062 258.730469 301.703125 258.730469 301.703125 L 243.675781 300.757812 L 230.164062 289.457031 L 205.371094 301.742188 L 206.472656 286.484375 L 232.453125 280.921875 "/><path style=" stroke:none;fill-rule:nonzero;fill:#000000;fill-opacity:1;" d="M 243.90625 300.171875 L 258.117188 301.066406 C 258.078125 300.417969 257.929688 299.394531 257.425781 298.644531 C 256.746094 297.632812 255.332031 297.03125 254.195312 296.550781 C 253.992188 296.46875 253.800781 296.382812 253.617188 296.300781 C 252.59375 295.847656 247.867188 294.632812 246.132812 294.203125 C 245.945312 294.160156 245.796875 294.027344 245.722656 293.851562 C 245.714844 293.828125 244.707031 291.425781 242.992188 288.765625 C 242.878906 288.585938 242.867188 288.363281 242.960938 288.171875 C 243.058594 287.980469 243.246094 287.859375 243.457031 287.84375 C 245.582031 287.699219 247.703125 285.816406 248.753906 284.738281 L 235.578125 281.84375 C 235.5625 281.839844 235.539062 281.835938 235.519531 281.828125 C 234.5 281.488281 233.503906 281.382812 232.554688 281.511719 L 207.039062 286.976562 L 206.046875 300.742188 L 229.898438 288.921875 C 230.109375 288.816406 230.363281 288.84375 230.546875 288.996094 Z M 205.371094 302.34375 C 205.253906 302.34375 205.136719 302.308594 205.035156 302.238281 C 204.859375 302.121094 204.757812 301.914062 204.773438 301.703125 L 205.875 286.441406 C 205.894531 286.175781 206.085938 285.957031 206.347656 285.898438 L 232.324219 280.335938 C 232.339844 280.332031 232.351562 280.328125 232.367188 280.328125 C 233.496094 280.167969 234.675781 280.289062 235.867188 280.679688 L 250.019531 283.792969 C 250.226562 283.835938 250.390625 283.984375 250.460938 284.179688 C 250.527344 284.378906 250.492188 284.59375 250.359375 284.753906 C 250.238281 284.90625 247.582031 288.125 244.484375 288.886719 C 245.660156 290.816406 246.425781 292.472656 246.710938 293.113281 C 247.976562 293.429688 252.921875 294.683594 254.101562 295.207031 C 254.28125 295.289062 254.46875 295.367188 254.664062 295.449219 C 255.945312 295.992188 257.539062 296.667969 258.421875 297.980469 C 259.433594 299.480469 259.332031 301.640625 259.328125 301.734375 C 259.320312 301.894531 259.246094 302.042969 259.128906 302.148438 C 259.007812 302.253906 258.851562 302.308594 258.691406 302.300781 L 243.636719 301.355469 C 243.507812 301.347656 243.386719 301.296875 243.289062 301.214844 L 230.078125 290.167969 L 205.636719 302.28125 C 205.554688 302.320312 205.460938 302.34375 205.371094 302.34375 "/><path style=" stroke:none;fill-rule:nonzero;fill:#5479f7;fill-opacity:1;" d="M 231.734375 293.832031 C 231.734375 293.832031 222.746094 279.859375 222.730469 279.839844 C 222.023438 278.738281 216.109375 280.496094 215.015625 280.558594 C 211.097656 280.785156 207.019531 280.144531 203.113281 279.714844 C 194.769531 278.789062 186.46875 277.449219 178.261719 275.695312 C 171.554688 274.265625 164.8125 272.523438 158.871094 269.101562 C 151.046875 264.601562 146.945312 257.589844 143.8125 249.410156 C 141.445312 243.226562 138.621094 238.058594 135.089844 232.398438 C 129.863281 224.023438 121.183594 217.148438 113.980469 213.578125 C 102.785156 208.03125 89.769531 205.351562 77.367188 207.824219 C 53.4375 212.59375 37.074219 226.527344 37.074219 226.527344 C 24.054688 236.910156 0.00390625 273.113281 8.578125 290.546875 C 19.09375 311.925781 47.441406 299.417969 47.441406 299.417969 C 47.441406 299.417969 50.191406 303.90625 44.277344 317.554688 C 37.09375 334.132812 47.503906 336.351562 47.503906 336.351562 C 71.703125 348.171875 135.804688 345.527344 130.339844 332.332031 C 124.488281 318.207031 124.390625 300.300781 124.390625 300.300781 C 132.476562 308.289062 149.992188 309.976562 149.992188 309.976562 C 149.992188 309.976562 164.78125 311.375 174.171875 309.777344 C 226.726562 301.992188 231.734375 293.832031 231.734375 293.832031 "/><path style=" stroke:none;fill-rule:nonzero;fill:#000000;fill-opacity:1;" d="M 47.804688 288.988281 C 47.554688 288.988281 47.320312 288.832031 47.238281 288.585938 C 39.226562 265.433594 42.945312 246.730469 42.984375 246.542969 C 43.050781 246.21875 43.371094 246.011719 43.691406 246.078125 C 44.015625 246.144531 44.226562 246.464844 44.160156 246.789062 C 44.121094 246.96875 40.472656 265.371094 48.371094 288.195312 C 48.476562 288.507812 48.3125 288.847656 48 288.957031 C 47.933594 288.976562 47.867188 288.988281 47.804688 288.988281 "/><path style=" stroke:none;fill-rule:nonzero;fill:#000000;fill-opacity:1;" d="M 123.914062 301.023438 C 123.761719 301.023438 123.609375 300.96875 123.492188 300.855469 C 110.972656 288.636719 102.253906 260.265625 101.886719 259.0625 C 101.792969 258.746094 101.96875 258.410156 102.289062 258.316406 C 102.605469 258.21875 102.9375 258.398438 103.035156 258.714844 C 103.125 259.003906 112.03125 287.996094 124.332031 299.996094 C 124.570312 300.230469 124.574219 300.605469 124.34375 300.84375 C 124.222656 300.964844 124.070312 301.023438 123.914062 301.023438 "/><path style=" stroke:none;fill-rule:nonzero;fill:#ffffff;fill-opacity:1;" d="M 91.035156 151.207031 C 95.871094 151.230469 100.328125 153.84375 102.753906 158.019531 C 103.878906 159.953125 104.902344 161.757812 105.109375 162.269531 C 105.578125 163.429688 106.617188 167.328125 110.417969 171.085938 C 110.792969 171.457031 110.84375 172.042969 110.519531 172.457031 L 108.085938 175.570312 C 107.917969 175.785156 107.847656 176.058594 107.894531 176.324219 C 108.183594 177.984375 109.632812 184.007812 109.207031 185.09375 C 108.296875 187.398438 102.785156 188.023438 101.148438 188.15625 C 100.84375 188.183594 100.570312 188.355469 100.421875 188.621094 C 99.890625 189.578125 98.492188 192.3125 97.347656 199.136719 C 95.597656 209.535156 105.523438 211.152344 103.5 212.171875 C 89.402344 219.277344 63.441406 217.660156 64.949219 214.707031 C 66.1875 212.273438 80.429688 205.980469 81.757812 188.878906 C 82.582031 178.210938 67.632812 177.335938 78.40625 157.035156 C 80.910156 152.316406 86.332031 151.1875 91.035156 151.207031 "/><path style=" stroke:none;fill-rule:nonzero;fill:#000000;fill-opacity:1;" d="M 65.5 214.941406 C 65.566406 215.019531 65.792969 215.226562 66.523438 215.480469 C 71.589844 217.246094 90.996094 217.644531 102.953125 211.773438 C 102.761719 211.621094 102.492188 211.433594 102.261719 211.273438 C 100.0625 209.738281 95.492188 206.546875 96.757812 199.039062 C 97.5625 194.238281 98.621094 190.636719 99.898438 188.332031 C 100.140625 187.890625 100.589844 187.601562 101.101562 187.5625 C 104.195312 187.304688 108.027344 186.445312 108.648438 184.875 C 108.910156 184.1875 108.027344 179.953125 107.648438 178.148438 C 107.5 177.433594 107.371094 176.816406 107.304688 176.429688 C 107.226562 175.996094 107.339844 175.546875 107.613281 175.203125 L 110.046875 172.089844 C 110.183594 171.917969 110.160156 171.675781 109.996094 171.511719 C 106.589844 168.144531 105.355469 164.703125 104.761719 163.050781 C 104.679688 162.824219 104.613281 162.636719 104.550781 162.492188 C 104.460938 162.261719 104.03125 161.414062 102.238281 158.320312 C 99.914062 154.324219 95.621094 151.828125 91.03125 151.804688 C 90.988281 151.804688 90.949219 151.804688 90.90625 151.804688 C 86.75 151.804688 81.347656 152.773438 78.933594 157.316406 C 72.269531 169.878906 75.621094 174.6875 78.859375 179.339844 C 80.734375 182.03125 82.671875 184.8125 82.355469 188.921875 C 81.316406 202.324219 72.625 209.125 67.953125 212.777344 C 66.78125 213.695312 65.761719 214.492188 65.5 214.941406 Z M 77.394531 217.808594 C 70.9375 217.808594 65.847656 216.988281 64.679688 215.816406 C 64.269531 215.410156 64.175781 214.90625 64.414062 214.433594 C 64.761719 213.75 65.738281 212.988281 67.214844 211.832031 C 71.738281 208.292969 80.160156 201.707031 81.160156 188.828125 C 81.445312 185.148438 79.710938 182.660156 77.875 180.023438 C 74.589844 175.308594 70.867188 169.960938 77.875 156.753906 C 80.011719 152.730469 84.511719 150.605469 90.902344 150.605469 C 90.949219 150.605469 90.992188 150.605469 91.035156 150.605469 C 96.050781 150.628906 100.738281 153.359375 103.273438 157.71875 C 105.378906 161.34375 105.59375 161.871094 105.664062 162.042969 C 105.726562 162.199219 105.800781 162.402344 105.886719 162.648438 C 106.453125 164.21875 107.625 167.484375 110.839844 170.660156 C 111.433594 171.246094 111.5 172.179688 110.992188 172.828125 L 108.558594 175.9375 C 108.492188 176.019531 108.46875 176.121094 108.484375 176.222656 C 108.550781 176.59375 108.675781 177.199219 108.824219 177.90625 C 109.710938 182.152344 110.097656 184.464844 109.761719 185.3125 C 108.757812 187.859375 103.441406 188.566406 101.199219 188.753906 C 101.089844 188.761719 100.996094 188.824219 100.945312 188.914062 C 99.4375 191.632812 98.476562 196.03125 97.9375 199.234375 C 96.800781 205.996094 100.800781 208.789062 102.949219 210.289062 C 103.863281 210.929688 104.414062 211.3125 104.371094 211.921875 C 104.355469 212.148438 104.238281 212.46875 103.769531 212.703125 C 96.359375 216.441406 85.734375 217.808594 77.394531 217.808594 "/><path style=" stroke:none;fill-rule:nonzero;fill:#000000;fill-opacity:1;" d="M 99.253906 167.648438 L 104.894531 160.597656 C 107.789062 156.980469 106.777344 151.652344 102.769531 149.320312 C 101.660156 148.671875 100.355469 147.996094 98.898438 147.371094 C 84.414062 141.140625 67.820312 151.417969 67.804688 167.171875 C 67.796875 173.621094 72.113281 181.09375 81.285156 187.734375 C 81.285156 187.734375 87.730469 182.660156 87.648438 177.167969 C 87.648438 177.167969 82.972656 171.625 89.5625 168.820312 C 90.820312 168.285156 92.261719 168.324219 93.492188 168.929688 C 95.476562 169.90625 97.875 169.375 99.253906 167.648438 "/><path style=" stroke:none;fill-rule:nonzero;fill:#000000;fill-opacity:1;" d="M 90.660156 180.289062 C 88.785156 180.289062 86.394531 179.492188 84.613281 176.132812 C 84.460938 175.839844 84.570312 175.476562 84.863281 175.324219 C 85.15625 175.167969 85.519531 175.277344 85.675781 175.574219 C 88.484375 180.875 92.890625 178.667969 93.078125 178.574219 C 93.371094 178.421875 93.730469 178.535156 93.886719 178.828125 C 94.039062 179.117188 93.925781 179.480469 93.632812 179.632812 C 93.609375 179.648438 92.34375 180.289062 90.660156 180.289062 "/><path style=" stroke:none;fill-rule:nonzero;fill:#000000;fill-opacity:1;" d="M 75.355469 152.21875 C 75.355469 152.21875 70.460938 135.316406 52.617188 138.5 C 41.480469 140.484375 31.75 147.960938 26.40625 160.164062 C 22.449219 169.195312 22.613281 177.183594 21.742188 186.648438 C 20.964844 195.113281 13.417969 200.769531 11.710938 208.820312 C 9.621094 218.648438 19.199219 225.734375 28.425781 223.910156 C 38.730469 221.871094 48.292969 211.105469 52.515625 202.089844 C 56.875 192.769531 57.59375 182.417969 59.800781 172.5 C 60.753906 168.203125 61.476562 162.269531 64.902344 159.296875 C 66.660156 157.769531 72.441406 157.601562 73.441406 155.75 C 73.445312 155.746094 75.355469 152.21875 75.355469 152.21875 "/><g clip-rule="nonzero" clip-path="url(#5e0d185d6b)"><path style=" stroke:none;fill-rule:nonzero;fill:#f9fcff;fill-opacity:1;" d="M 206.464844 229.601562 L 199.976562 229.601562 C 200.757812 228.148438 201.378906 226.605469 201.824219 225 L 209.457031 225 C 208.726562 226.707031 207.707031 228.257812 206.464844 229.601562 Z M 179.851562 225 L 187.480469 225 C 187.925781 226.605469 188.546875 228.148438 189.328125 229.601562 L 182.84375 229.601562 C 181.601562 228.257812 180.582031 226.707031 179.851562 225 Z M 190.644531 229.601562 C 189.8125 228.160156 189.140625 226.617188 188.664062 225 L 200.644531 225 C 200.164062 226.617188 199.488281 228.160156 198.660156 229.601562 Z M 193.09375 234.699219 C 189.632812 234.363281 186.496094 232.929688 184.019531 230.75 L 189.976562 230.75 C 190.863281 232.191406 191.910156 233.523438 193.09375 234.699219 Z M 199.324219 230.75 L 205.285156 230.75 C 202.8125 232.933594 199.667969 234.367188 196.203125 234.699219 C 197.386719 233.523438 198.4375 232.195312 199.324219 230.75 Z M 194.648438 234.589844 C 193.402344 233.472656 192.300781 232.171875 191.355469 230.75 L 197.945312 230.75 C 197 232.171875 195.898438 233.472656 194.648438 234.589844 Z M 179.414062 213.5 L 209.894531 213.5 C 210.449219 215.128906 210.753906 216.867188 210.753906 218.675781 C 210.753906 220.488281 210.449219 222.226562 209.894531 223.851562 L 179.414062 223.851562 C 178.859375 222.226562 178.554688 220.488281 178.554688 218.675781 C 178.554688 216.867188 178.859375 215.128906 179.414062 213.5 Z M 182.84375 207.75 L 189.328125 207.75 C 188.546875 209.203125 187.925781 210.746094 187.480469 212.351562 L 179.851562 212.351562 C 180.582031 210.648438 181.601562 209.09375 182.84375 207.75 Z M 198.660156 207.75 C 199.488281 209.191406 200.164062 210.734375 200.644531 212.351562 L 188.664062 212.351562 C 189.140625 210.734375 189.8125 209.191406 190.644531 207.75 Z M 196.203125 202.652344 C 199.667969 202.984375 202.8125 204.421875 205.285156 206.601562 L 199.324219 206.601562 C 198.4375 205.15625 197.386719 203.828125 196.203125 202.652344 Z M 189.976562 206.601562 L 184.019531 206.601562 C 186.496094 204.421875 189.632812 202.988281 193.09375 202.652344 C 191.910156 203.828125 190.863281 205.160156 189.976562 206.601562 Z M 194.648438 202.765625 C 195.898438 203.882812 197 205.179688 197.945312 206.601562 L 191.355469 206.601562 C 192.300781 205.183594 193.402344 203.882812 194.648438 202.765625 Z M 209.457031 212.351562 L 201.824219 212.351562 C 201.378906 210.746094 200.757812 209.203125 199.976562 207.75 L 206.464844 207.75 C 207.707031 209.09375 208.726562 210.648438 209.457031 212.351562 Z M 194.652344 201.425781 C 194.652344 201.425781 194.648438 201.425781 194.648438 201.425781 C 185.140625 201.429688 177.40625 209.167969 177.40625 218.675781 C 177.40625 228.1875 185.140625 235.921875 194.648438 235.925781 C 194.648438 235.925781 194.652344 235.925781 194.652344 235.925781 C 204.167969 235.925781 211.902344 228.1875 211.902344 218.675781 C 211.902344 209.164062 204.167969 201.425781 194.652344 201.425781 "/></g><path style=" stroke:none;fill-rule:nonzero;fill:#f9fcff;fill-opacity:1;" d="M 182.023438 221.703125 C 182.09375 221.949219 182.316406 222.121094 182.574219 222.125 C 182.574219 222.125 182.578125 222.125 182.578125 222.125 C 182.832031 222.125 183.058594 221.960938 183.128906 221.714844 L 184.304688 217.800781 L 185.480469 221.714844 C 185.550781 221.960938 185.777344 222.125 186.03125 222.125 C 186.03125 222.125 186.035156 222.125 186.035156 222.125 C 186.292969 222.121094 186.515625 221.949219 186.585938 221.703125 L 188.308594 215.375 L 187.199219 215.074219 L 186.003906 219.460938 L 184.855469 215.636719 C 184.78125 215.390625 184.558594 215.226562 184.304688 215.226562 C 184.050781 215.226562 183.824219 215.390625 183.753906 215.636719 L 182.605469 219.460938 L 181.410156 215.074219 L 180.300781 215.375 L 182.023438 221.703125 "/><path style=" stroke:none;fill-rule:nonzero;fill:#f9fcff;fill-opacity:1;" d="M 192.921875 222.125 C 192.925781 222.125 192.925781 222.125 192.929688 222.125 C 193.183594 222.125 193.40625 221.960938 193.480469 221.714844 L 194.652344 217.800781 L 195.828125 221.714844 C 195.902344 221.960938 196.125 222.125 196.378906 222.125 C 196.382812 222.125 196.382812 222.125 196.386719 222.125 C 196.644531 222.121094 196.867188 221.949219 196.933594 221.703125 L 198.660156 215.375 L 197.550781 215.074219 L 196.351562 219.460938 L 195.203125 215.636719 C 195.132812 215.390625 194.90625 215.226562 194.652344 215.226562 C 194.398438 215.226562 194.175781 215.390625 194.105469 215.636719 L 192.957031 219.460938 L 191.757812 215.074219 L 190.648438 215.375 L 192.375 221.703125 C 192.441406 221.949219 192.664062 222.121094 192.921875 222.125 "/><path style=" stroke:none;fill-rule:nonzero;fill:#f9fcff;fill-opacity:1;" d="M 203.273438 222.125 C 203.273438 222.125 203.277344 222.125 203.277344 222.125 C 203.53125 222.125 203.757812 221.960938 203.828125 221.714844 L 205.003906 217.800781 L 206.179688 221.714844 C 206.25 221.960938 206.476562 222.125 206.730469 222.125 C 206.730469 222.125 206.734375 222.125 206.734375 222.125 C 206.992188 222.121094 207.214844 221.949219 207.285156 221.703125 L 209.007812 215.375 L 207.898438 215.074219 L 206.703125 219.460938 L 205.554688 215.636719 C 205.480469 215.390625 205.257812 215.226562 205.003906 215.226562 C 204.75 215.226562 204.527344 215.390625 204.453125 215.636719 L 203.304688 219.460938 L 202.109375 215.074219 L 201 215.375 L 202.722656 221.703125 C 202.792969 221.949219 203.015625 222.121094 203.273438 222.125 "/></g></svg>